<svg xmlns="http://www.w3.org/2000/svg" width="21.962" height="21.911" viewBox="0 0 21.962 21.911">
  <path id="block" d="M10.982.25a10.581,10.581,0,0,1,7.766,3.214,10.552,10.552,0,0,1,3.214,7.741,10.552,10.552,0,0,1-3.214,7.741,10.581,10.581,0,0,1-7.766,3.214,10.581,10.581,0,0,1-7.766-3.214A10.554,10.554,0,0,1,0,11.206,10.549,10.549,0,0,1,3.214,3.464,10.583,10.583,0,0,1,10.982.25ZM2.211,11.206a8.525,8.525,0,0,0,1.852,5.4L16.356,4.262a8.525,8.525,0,0,0-5.4-1.852A8.418,8.418,0,0,0,4.783,4.982,8.477,8.477,0,0,0,2.211,11.206ZM10.956,20a8.476,8.476,0,0,0,6.223-2.572,8.48,8.48,0,0,0,2.572-6.223A8.525,8.525,0,0,0,17.9,5.8L5.606,18.149A8.453,8.453,0,0,0,10.956,20Z" transform="translate(0 -0.25)" fill="red"/>
</svg>
