<svg id="chat-left-text" xmlns="http://www.w3.org/2000/svg" width="21.187" height="20.25" viewBox="0 0 21.187 20.25">
  <path id="Path_631" data-name="Path 631" d="M18.538,1.324H2.648A1.324,1.324,0,0,0,1.324,2.648V17.99l2.648-2.648a2.648,2.648,0,0,1,1.872-.776H18.538a1.324,1.324,0,0,0,1.324-1.324V2.648A1.324,1.324,0,0,0,18.538,1.324ZM2.648,0A2.648,2.648,0,0,0,0,2.648v16.94a.662.662,0,0,0,1.131.467l3.778-3.778a1.324,1.324,0,0,1,.936-.388H18.538a2.648,2.648,0,0,0,2.648-2.648V2.648A2.648,2.648,0,0,0,18.538,0Z" fill="#fff" fill-rule="evenodd"/>
  <path id="Path_632" data-name="Path 632" d="M6.75,7.412a.662.662,0,0,1,.662-.662H19.329a.662.662,0,1,1,0,1.324H7.412A.662.662,0,0,1,6.75,7.412Zm0,3.31a.662.662,0,0,1,.662-.662H19.329a.662.662,0,1,1,0,1.324H7.412A.662.662,0,0,1,6.75,10.722Zm0,3.31a.662.662,0,0,1,.662-.662h6.621a.662.662,0,0,1,0,1.324H7.412A.662.662,0,0,1,6.75,14.033Z" transform="translate(-2.778 -2.778)" fill="#fff" fill-rule="evenodd"/>
</svg>
