<svg xmlns="http://www.w3.org/2000/svg" width="17.375" height="12.126" viewBox="0 0 17.375 12.126">
  <path id="accounts-alt" d="M12.573,9.646a2.154,2.154,0,0,1-2.157-2.157,2.147,2.147,0,0,1,.631-1.546,2.114,2.114,0,0,1,3.052,0,2.145,2.145,0,0,1,.631,1.546,2.154,2.154,0,0,1-2.157,2.157Zm-6.49-.854a2.527,2.527,0,0,1-1.852-.773,2.523,2.523,0,0,1-.773-1.852,2.462,2.462,0,0,1,.773-1.831,2.561,2.561,0,0,1,1.852-.753A2.571,2.571,0,0,1,8.667,6.167a2.557,2.557,0,0,1-.753,1.852A2.457,2.457,0,0,1,6.083,8.792Zm6.51,2.6a8.533,8.533,0,0,1,3.133.651q1.648.651,1.648,1.709v1.953H7.813V13.755q0-1.058,1.648-1.709a8.533,8.533,0,0,1,3.133-.651Zm-6.53-.9a10.406,10.406,0,0,1,2.075.244,3.4,3.4,0,0,0-2.075,3.011v1.953H0V13.552a2.044,2.044,0,0,1,1.119-1.668A7.807,7.807,0,0,1,3.6,10.826,10.692,10.692,0,0,1,6.063,10.5Z" transform="translate(0 -3.583)" fill="#a5a1a1"/>
</svg>
