<svg xmlns="http://www.w3.org/2000/svg" width="20.062" height="20.062" viewBox="0 0 20.062 20.062">
  <path id="phone" d="M20.062,15.844a4.7,4.7,0,0,1-.143,1,5.654,5.654,0,0,1-.3.976,3.821,3.821,0,0,1-1.738,1.51,5.524,5.524,0,0,1-2.65.727,5.687,5.687,0,0,1-.755-.05,5.777,5.777,0,0,1-.819-.178q-.449-.129-.67-.207t-.791-.292q-.57-.214-.7-.256A12.9,12.9,0,0,1,9,17.9a21.481,21.481,0,0,1-3.762-3.078,21.481,21.481,0,0,1-3.078-3.762A12.92,12.92,0,0,1,.983,8.563q-.043-.128-.256-.7T.435,7.074Q.356,6.854.228,6.4A5.905,5.905,0,0,1,.05,5.585,5.556,5.556,0,0,1,0,4.83,5.526,5.526,0,0,1,.727,2.18,3.821,3.821,0,0,1,2.237.442a5.675,5.675,0,0,1,.976-.3,4.7,4.7,0,0,1,1-.143.8.8,0,0,1,.3.043q.256.085.755,1.083.157.271.427.77t.5.9q.228.406.442.762.043.057.249.356a4.057,4.057,0,0,1,.306.506.92.92,0,0,1,.1.406,1.182,1.182,0,0,1-.406.712,6.96,6.96,0,0,1-.883.784,8.6,8.6,0,0,0-.883.755,1.085,1.085,0,0,0-.406.655.961.961,0,0,0,.071.32q.071.192.121.292t.2.342q.15.242.164.271a14.953,14.953,0,0,0,2.479,3.349A14.953,14.953,0,0,0,11.1,14.79q.028.014.271.164t.342.2a2.992,2.992,0,0,0,.292.121.98.98,0,0,0,.32.071,1.085,1.085,0,0,0,.655-.406,8.6,8.6,0,0,0,.755-.883,6.96,6.96,0,0,1,.784-.883,1.182,1.182,0,0,1,.712-.406.93.93,0,0,1,.406.1,3.968,3.968,0,0,1,.506.306q.3.207.356.249.356.214.762.442t.9.5q.5.271.77.427,1,.5,1.083.755a.8.8,0,0,1,.043.3Z" fill="#163f68"/>
</svg>
