<svg id="share-knowledge" xmlns="http://www.w3.org/2000/svg" width="20" height="20" viewBox="0 0 20 20">
  <path id="Path_644" data-name="Path 644" d="M26.679,28.125H22.393a2.143,2.143,0,0,0-2.143,2.143V31.7h1.429V30.268a.714.714,0,0,1,.714-.714h4.286a.714.714,0,0,1,.714.714V31.7h1.429V30.268a2.143,2.143,0,0,0-2.143-2.143Z" transform="translate(-8.821 -11.696)"/>
  <path id="Path_645" data-name="Path 645" d="M22.5,20.857A2.857,2.857,0,1,0,25.357,18,2.857,2.857,0,0,0,22.5,20.857Zm4.286,0a1.429,1.429,0,1,1-1.429-1.429A1.429,1.429,0,0,1,26.786,20.857Z" transform="translate(-9.643 -8)"/>
  <path id="Path_646" data-name="Path 646" d="M5.929,23.214V22.5H4.5v.714a5,5,0,0,0,5,5h2.143V26.786H9.5A3.571,3.571,0,0,1,5.929,23.214Z" transform="translate(-3.071 -9.643)"/>
  <path id="Path_647" data-name="Path 647" d="M21.375,11.25h5v1.429h-5Z" transform="translate(-9.232 -5.536)"/>
  <path id="Path_648" data-name="Path 648" d="M21.375,6.75h7.143V8.179H21.375Z" transform="translate(-9.232 -3.893)"/>
  <path id="Path_649" data-name="Path 649" d="M21.375,2.25h7.143V3.679H21.375Z" transform="translate(-9.232 -2.25)"/>
  <path id="Path_650" data-name="Path 650" d="M8.679,12.375H4.393A2.143,2.143,0,0,0,2.25,14.518v1.429H3.679V14.518a.714.714,0,0,1,.714-.714H8.679a.714.714,0,0,1,.714.714v1.429h1.429V14.518a2.143,2.143,0,0,0-2.143-2.143Z" transform="translate(-2.25 -5.946)"/>
  <path id="Path_651" data-name="Path 651" d="M7.357,7.964A2.857,2.857,0,1,0,4.5,5.107,2.857,2.857,0,0,0,7.357,7.964Zm0-4.286A1.429,1.429,0,1,1,5.929,5.107,1.429,1.429,0,0,1,7.357,3.679Z" transform="translate(-3.071 -2.25)"/>
</svg>
