<svg xmlns="http://www.w3.org/2000/svg" width="35.038" height="30.734" viewBox="0 0 35.038 30.734">
  <g id="images-outline" transform="translate(0 -2.25)" opacity="0.2">
    <path id="Path_673" data-name="Path 673" d="M29.143,7.685V6.608A3.242,3.242,0,0,0,25.91,3.375H4.358A3.242,3.242,0,0,0,1.125,6.608V23.85a3.242,3.242,0,0,0,3.233,3.233H5.435" transform="translate(0)" fill="none" stroke="#000" stroke-linejoin="round" stroke-width="2.25"/>
    <path id="Path_674" data-name="Path 674" d="M9.848,9H30.593a3.1,3.1,0,0,1,3.1,3.1V28.532a3.1,3.1,0,0,1-3.1,3.1H9.848a3.1,3.1,0,0,1-3.1-3.1V12.1A3.1,3.1,0,0,1,9.848,9Z" transform="translate(-0.237 -0.237)" fill="none" stroke="#000" stroke-linejoin="round" stroke-width="2.25"/>
    <path id="Path_675" data-name="Path 675" d="M28.2,15.353a2.072,2.072,0,1,1-2.072-2.058A2.065,2.065,0,0,1,28.2,15.353Z" transform="translate(-0.966 -0.418)" fill="none" stroke="#000" stroke-miterlimit="10" stroke-width="2.25"/>
    <path id="Path_676" data-name="Path 676" d="M23.328,25.886l-5.869-5.818a2.083,2.083,0,0,0-2.841-.081L6.75,26.928" transform="translate(-0.237 -0.678)" fill="none" stroke="#000" stroke-linecap="round" stroke-linejoin="round" stroke-width="2.25"/>
    <path id="Path_677" data-name="Path 677" d="M18.649,32.25l7.987-7.929a2.088,2.088,0,0,1,2.792-.125l4.764,3.941" transform="translate(-0.738 -0.857)" fill="none" stroke="#000" stroke-linecap="round" stroke-linejoin="round" stroke-width="2.25"/>
  </g>
</svg>
