<svg xmlns="http://www.w3.org/2000/svg" width="19.92" height="14.229" viewBox="0 0 19.92 14.229">
  <g id="camera-video-fill" transform="translate(-2.25 -6.75)">
    <path id="Path_667" data-name="Path 667" d="M4.622,6.75h9.484a2.372,2.372,0,0,1,2.372,2.372v9.484a2.373,2.373,0,0,1-2.372,2.372H4.622A2.372,2.372,0,0,1,2.25,18.606V9.122A2.373,2.373,0,0,1,4.622,6.75Z" fill="#163f68"/>
    <path id="Path_668" data-name="Path 668" d="M16.324,15.269l9.054,5.253a1.165,1.165,0,0,0,1.754-.992V9.024a1.165,1.165,0,0,0-1.754-.99l-9.054,5.253a1.141,1.141,0,0,0,0,1.982Z" transform="translate(-4.962 -0.413)" fill="#163f68"/>
  </g>
</svg>
