<svg xmlns="http://www.w3.org/2000/svg" width="16.505" height="16.553" viewBox="0 0 16.505 16.553">
  <path id="account" d="M8.252,10.246a3.989,3.989,0,0,1-2.928-1.21,3.989,3.989,0,0,1-1.21-2.928A3.986,3.986,0,0,1,5.325,3.179a3.993,3.993,0,0,1,2.928-1.21,3.986,3.986,0,0,1,2.928,1.21,3.99,3.99,0,0,1,1.21,2.928,3.99,3.99,0,0,1-1.21,2.928,3.986,3.986,0,0,1-2.928,1.21Zm0,2.081a14.7,14.7,0,0,1,3.364.436,10.589,10.589,0,0,1,3.364,1.428,2.763,2.763,0,0,1,1.525,2.251v2.081H0V16.441a2.762,2.762,0,0,1,1.525-2.251,10.605,10.605,0,0,1,3.364-1.428,14.658,14.658,0,0,1,3.364-.436Z" transform="translate(0 -1.969)"/>
</svg>
