<svg xmlns="http://www.w3.org/2000/svg" width="17.143" height="17.143" viewBox="0 0 17.143 17.143">
  <path id="addfriend" d="M16.072,15H15v1.071a1.022,1.022,0,0,1-.318.762,1.051,1.051,0,0,1-.762.31,1.057,1.057,0,0,1-1.063-1.071V15H11.786a1.022,1.022,0,0,1-.762-.318,1.051,1.051,0,0,1-.31-.762,1.057,1.057,0,0,1,1.071-1.063h1.071V11.786a1.037,1.037,0,0,1,.31-.762,1.023,1.023,0,0,1,.753-.31,1.057,1.057,0,0,1,.762.31,1.02,1.02,0,0,1,.318.762v1.071h1.071a1.044,1.044,0,0,1,.753.31,1.012,1.012,0,0,1,.318.753A1.086,1.086,0,0,1,16.072,15Zm-4.185-4.286a4.814,4.814,0,0,1-1.172.7v.469a1.611,1.611,0,0,0-.77.578,1.529,1.529,0,0,0-.3.929v1.071a1.6,1.6,0,0,0,1.607,1.607h.536V17.11q-1.172.033-3.214.033H7.3l-1.356-.017-1.457-.042-1.34-.075-1.264-.142-.962-.2L.226,16.39,0,16.022a3.256,3.256,0,0,1,1.841-2.6,11.429,11.429,0,0,1,4.587-1.5v-.552a4.425,4.425,0,0,1-1.507-1.088,5.286,5.286,0,0,1-1-1.649A9.658,9.658,0,0,1,3.382,6.6a15.129,15.129,0,0,1-.168-2.319,4.2,4.2,0,0,1,.419-1.917A3.545,3.545,0,0,1,4.788,1.03,5.44,5.44,0,0,1,6.479.26,7.985,7.985,0,0,1,8.572,0a7.937,7.937,0,0,1,2.093.26,5.463,5.463,0,0,1,1.691.77,3.541,3.541,0,0,1,1.155,1.34,4.187,4.187,0,0,1,.418,1.917,9.867,9.867,0,0,1-1.256,5.525,1.609,1.609,0,0,0-.787.9Z" fill="#fff"/>
</svg>
