<svg xmlns="http://www.w3.org/2000/svg" width="23.286" height="15.97" viewBox="0 0 23.286 15.97">
  <path id="group" d="M11.581,5.655c-2.005,0-3.631,1.9-3.631,4.239A4.375,4.375,0,0,0,9.88,13.64l-1.332.617L5.005,15.9a.9.9,0,0,0-.513.872v3.9a.908.908,0,0,0,.8.95H17.894a.9.9,0,0,0,.821-.95v-3.9A.9.9,0,0,0,18.2,15.9l-3.415-1.644-1.419-.672a4.4,4.4,0,0,0,1.845-3.691c0-2.341-1.625-4.239-3.631-4.239ZM5.724,7.146a2.8,2.8,0,0,0-2.067,1A3.877,3.877,0,0,0,2.8,10.56a3.669,3.669,0,0,0,1.592,3.055L.411,15.464A.677.677,0,0,0,0,16.183v3.132c.021.415.237.765.642.77H3.286V16.773a2.157,2.157,0,0,1,1.207-1.951l2.644-1.258a2.539,2.539,0,0,0,.591-.488,5.95,5.95,0,0,1-.539-5.468,2.912,2.912,0,0,0-1.464-.462Zm11.81,0a2.8,2.8,0,0,0-1.514.513,6,6,0,0,1-.514,5.366,2.714,2.714,0,0,0,.694.591l2.541,1.207a2.193,2.193,0,0,1,1.181,1.951v3.312h2.721a.707.707,0,0,0,.642-.77V16.183a.734.734,0,0,0-.411-.719l-3.928-1.875a3.761,3.761,0,0,0,1.54-3.03,3.86,3.86,0,0,0-.86-2.413,2.864,2.864,0,0,0-2.092-1Z" transform="translate(0 -5.655)" fill="#8c8c8c"/>
</svg>
