<svg xmlns="http://www.w3.org/2000/svg" width="23.423" height="22.422" viewBox="0 0 23.423 22.422">
  <g id="dislike" transform="translate(-6.289 -6.789)">
    <path id="Path_680" data-name="Path 680" d="M29.712,10.724h0a.457.457,0,0,0-.133-.322h0L26.063,6.886l-.009.009a.449.449,0,0,0-.348-.1h-13c-.026,0-.051-.008-.078-.008a.911.911,0,0,0-.908.866h0v.03c0,.006,0,.012,0,.017s0,.012,0,.017V20.858h0v0a.913.913,0,0,0,.913.913c.017,0,.032,0,.049-.005h3.575A1.047,1.047,0,0,0,16.45,22l.039.068v.039h.023l3.495,6.054.009,0a2.059,2.059,0,0,0,1.793,1.057,2.082,2.082,0,0,0,2.067-2.1H23.9V21.77h4.926v-.007a.911.911,0,0,0,.886-.905h0Z" fill="red"/>
    <path id="Path_681" data-name="Path 681" d="M9.867,9.314v0A.913.913,0,0,0,8.954,8.4c-.017,0-.033,0-.049.005H7.178v.006a.911.911,0,0,0-.886.9h0v9.9H6.3a.908.908,0,0,0,.873.823v.008h1.79a.913.913,0,0,0,.913-.913.882.882,0,0,0-.013-.126Z" fill="red"/>
  </g>
</svg>
