<svg xmlns="http://www.w3.org/2000/svg" width="295" height="295" viewBox="0 0 295 295">
  <g id="Group_2" data-name="Group 2" transform="translate(-68 -221)">
    <circle id="Ellipse_78" data-name="Ellipse 78" cx="147.5" cy="147.5" r="147.5" transform="translate(68 221)" fill="#163f68"/>
    <g id="chat-dots" transform="translate(150.895 306.427)">
      <path id="Path_662" data-name="Path 662" d="M21.461,89.547a8.013,8.013,0,0,1,2.3,6.418,87.905,87.905,0,0,1-3.191,16.026c11.179-2.589,18.006-5.584,21.1-7.155a8.013,8.013,0,0,1,5.688-.591A64.585,64.585,0,0,0,64.1,106.421c32.02,0,56.092-22.494,56.092-48.079S96.125,10.263,64.1,10.263,8.013,32.764,8.013,58.342c0,11.763,4.943,22.675,13.448,31.2Zm-3.95,31.29q-2.847.564-5.712,1.033a2.083,2.083,0,0,1-2.187-2.9q1.067-2.516,1.955-5.1l.025-.078a83.8,83.8,0,0,0,4.2-18.583C5.955,85.344,0,72.445,0,58.342,0,27.361,28.7,2.25,64.1,2.25s64.1,25.111,64.1,56.092-28.7,56.092-64.1,56.092A72.6,72.6,0,0,1,45.3,111.98c-4.167,2.108-13.134,5.944-27.79,8.854Z" transform="translate(0)" fill="#fff" fill-rule="evenodd"/>
      <path id="Path_663" data-name="Path 663" d="M22.776,23.763a8.013,8.013,0,1,1-8.013-8.013A8.013,8.013,0,0,1,22.776,23.763Zm32.052,0a8.013,8.013,0,1,1-8.013-8.013A8.013,8.013,0,0,1,54.829,23.763Zm32.052,0a8.013,8.013,0,1,1-8.013-8.013A8.013,8.013,0,0,1,86.881,23.763Z" transform="translate(17.289 34.579)" fill="#fff"/>
    </g>
  </g>
</svg>
