<?xml version="1.0" encoding="UTF-8" standalone="no"?>
<!-- Created with Inkscape (http://www.inkscape.org/) -->

<svg
   width="36.923389mm"
   height="36.923138mm"
   viewBox="0 0 36.923388 36.923137"
   version="1.1"
   id="svg1"
   xml:space="preserve"
   xmlns:inkscape="http://www.inkscape.org/namespaces/inkscape"
   xmlns:sodipodi="http://sodipodi.sourceforge.net/DTD/sodipodi-0.dtd"
   xmlns="http://www.w3.org/2000/svg"
   xmlns:svg="http://www.w3.org/2000/svg"><sodipodi:namedview
     id="namedview1"
     pagecolor="#ffffff"
     bordercolor="#000000"
     borderopacity="0.25"
     inkscape:showpageshadow="2"
     inkscape:pageopacity="0.0"
     inkscape:pagecheckerboard="0"
     inkscape:deskcolor="#d1d1d1"
     inkscape:document-units="mm"><inkscape:page
       x="-5.4253369e-06"
       y="-1.1390291e-07"
       width="36.923389"
       height="36.923138"
       id="page1"
       margin="0"
       bleed="0" /></sodipodi:namedview><defs
     id="defs1"><clipPath
       clipPathUnits="userSpaceOnUse"
       id="clipPath13"><path
         d="m 1341,3434.29 c 0,-289.02 -234.3,-523.32 -523.324,-523.32 -289.024,0 -523.324,234.3 -523.324,523.32 0,289.02 234.3,523.32 523.324,523.32 289.024,0 523.324,-234.3 523.324,-523.32"
         transform="translate(0,-2.5000001e-5)"
         id="path13-9" /></clipPath><clipPath
       clipPathUnits="userSpaceOnUse"
       id="clipPath15"><path
         d="m 1341,3434.29 c 0,-289.02 -234.3,-523.32 -523.324,-523.32 -289.024,0 -523.324,234.3 -523.324,523.32 0,289.02 234.3,523.32 523.324,523.32 289.024,0 523.324,-234.3 523.324,-523.32"
         transform="translate(0,-2.5000001e-5)"
         id="path15-1" /></clipPath><clipPath
       clipPathUnits="userSpaceOnUse"
       id="clipPath17"><path
         d="m 1341,3434.29 c 0,-289.02 -234.3,-523.32 -523.324,-523.32 -289.024,0 -523.324,234.3 -523.324,523.32 0,289.02 234.3,523.32 523.324,523.32 289.024,0 523.324,-234.3 523.324,-523.32"
         transform="translate(0,-2.5000001e-5)"
         id="path17" /></clipPath><clipPath
       clipPathUnits="userSpaceOnUse"
       id="clipPath19"><path
         d="m 1341,3434.29 c 0,-289.02 -234.3,-523.32 -523.324,-523.32 -289.024,0 -523.324,234.3 -523.324,523.32 0,289.02 234.3,523.32 523.324,523.32 289.024,0 523.324,-234.3 523.324,-523.32"
         transform="translate(0,-2.5000001e-5)"
         id="path19" /></clipPath><clipPath
       clipPathUnits="userSpaceOnUse"
       id="clipPath21"><path
         d="m 1341,3434.29 c 0,-289.02 -234.3,-523.32 -523.324,-523.32 -289.024,0 -523.324,234.3 -523.324,523.32 0,289.02 234.3,523.32 523.324,523.32 289.024,0 523.324,-234.3 523.324,-523.32"
         transform="translate(0,-2.5000001e-5)"
         id="path21" /></clipPath><clipPath
       clipPathUnits="userSpaceOnUse"
       id="clipPath23"><path
         d="m 1341,3434.29 c 0,-289.02 -234.3,-523.32 -523.324,-523.32 -289.024,0 -523.324,234.3 -523.324,523.32 0,289.02 234.3,523.32 523.324,523.32 289.024,0 523.324,-234.3 523.324,-523.32"
         transform="translate(0,-2.5000001e-5)"
         id="path23" /></clipPath><clipPath
       clipPathUnits="userSpaceOnUse"
       id="clipPath25"><path
         d="m 1341,3434.29 c 0,-289.02 -234.3,-523.32 -523.324,-523.32 -289.024,0 -523.324,234.3 -523.324,523.32 0,289.02 234.3,523.32 523.324,523.32 289.024,0 523.324,-234.3 523.324,-523.32"
         transform="translate(0,-2.5000001e-5)"
         id="path25" /></clipPath><clipPath
       clipPathUnits="userSpaceOnUse"
       id="clipPath27"><path
         d="m 1341,3434.29 c 0,-289.02 -234.3,-523.32 -523.324,-523.32 -289.024,0 -523.324,234.3 -523.324,523.32 0,289.02 234.3,523.32 523.324,523.32 289.024,0 523.324,-234.3 523.324,-523.32"
         transform="translate(0,-2.5000001e-5)"
         id="path27" /></clipPath><clipPath
       clipPathUnits="userSpaceOnUse"
       id="clipPath29"><path
         d="m 1341,3434.29 c 0,-289.02 -234.3,-523.32 -523.324,-523.32 -289.024,0 -523.324,234.3 -523.324,523.32 0,289.02 234.3,523.32 523.324,523.32 289.024,0 523.324,-234.3 523.324,-523.32"
         transform="translate(0,-2.5000001e-5)"
         id="path29" /></clipPath><clipPath
       clipPathUnits="userSpaceOnUse"
       id="clipPath31"><path
         d="m 1341,3434.29 c 0,-289.02 -234.3,-523.32 -523.324,-523.32 -289.024,0 -523.324,234.3 -523.324,523.32 0,289.02 234.3,523.32 523.324,523.32 289.024,0 523.324,-234.3 523.324,-523.32"
         transform="translate(0,-2.5000001e-5)"
         id="path31" /></clipPath><clipPath
       clipPathUnits="userSpaceOnUse"
       id="clipPath33"><path
         d="m 1341,3434.29 c 0,-289.02 -234.3,-523.32 -523.324,-523.32 -289.024,0 -523.324,234.3 -523.324,523.32 0,289.02 234.3,523.32 523.324,523.32 289.024,0 523.324,-234.3 523.324,-523.32"
         transform="translate(0,-2.5000001e-5)"
         id="path33" /></clipPath><clipPath
       clipPathUnits="userSpaceOnUse"
       id="clipPath35"><path
         d="m 1341,3434.29 c 0,-289.02 -234.3,-523.32 -523.324,-523.32 -289.024,0 -523.324,234.3 -523.324,523.32 0,289.02 234.3,523.32 523.324,523.32 289.024,0 523.324,-234.3 523.324,-523.32"
         transform="translate(0,-2.5000001e-5)"
         id="path35" /></clipPath><clipPath
       clipPathUnits="userSpaceOnUse"
       id="clipPath37"><path
         d="m 1341,3434.29 c 0,-289.02 -234.3,-523.32 -523.324,-523.32 -289.024,0 -523.324,234.3 -523.324,523.32 0,289.02 234.3,523.32 523.324,523.32 289.024,0 523.324,-234.3 523.324,-523.32"
         transform="translate(0,-2.5000001e-5)"
         id="path37" /></clipPath><clipPath
       clipPathUnits="userSpaceOnUse"
       id="clipPath39"><path
         d="m 1341,3434.29 c 0,-289.02 -234.3,-523.32 -523.324,-523.32 -289.024,0 -523.324,234.3 -523.324,523.32 0,289.02 234.3,523.32 523.324,523.32 289.024,0 523.324,-234.3 523.324,-523.32"
         transform="translate(0,-2.5000001e-5)"
         id="path39" /></clipPath><clipPath
       clipPathUnits="userSpaceOnUse"
       id="clipPath41"><path
         d="m 1341,3434.29 c 0,-289.02 -234.3,-523.32 -523.324,-523.32 -289.024,0 -523.324,234.3 -523.324,523.32 0,289.02 234.3,523.32 523.324,523.32 289.024,0 523.324,-234.3 523.324,-523.32"
         transform="translate(0,-2.5000001e-5)"
         id="path41" /></clipPath><clipPath
       clipPathUnits="userSpaceOnUse"
       id="clipPath43"><path
         d="m 1341,3434.29 c 0,-289.02 -234.3,-523.32 -523.324,-523.32 -289.024,0 -523.324,234.3 -523.324,523.32 0,289.02 234.3,523.32 523.324,523.32 289.024,0 523.324,-234.3 523.324,-523.32"
         transform="translate(0,-2.5000001e-5)"
         id="path43" /></clipPath><clipPath
       clipPathUnits="userSpaceOnUse"
       id="clipPath45"><path
         d="m 1341,3434.29 c 0,-289.02 -234.3,-523.32 -523.324,-523.32 -289.024,0 -523.324,234.3 -523.324,523.32 0,289.02 234.3,523.32 523.324,523.32 289.024,0 523.324,-234.3 523.324,-523.32"
         transform="translate(0,-2.5000001e-5)"
         id="path45" /></clipPath><clipPath
       clipPathUnits="userSpaceOnUse"
       id="clipPath47"><path
         d="m 1341,3434.29 c 0,-289.02 -234.3,-523.32 -523.324,-523.32 -289.024,0 -523.324,234.3 -523.324,523.32 0,289.02 234.3,523.32 523.324,523.32 289.024,0 523.324,-234.3 523.324,-523.32"
         transform="translate(0,-2.5000001e-5)"
         id="path47" /></clipPath><clipPath
       clipPathUnits="userSpaceOnUse"
       id="clipPath49"><path
         d="m 1341,3434.29 c 0,-289.02 -234.3,-523.32 -523.324,-523.32 -289.024,0 -523.324,234.3 -523.324,523.32 0,289.02 234.3,523.32 523.324,523.32 289.024,0 523.324,-234.3 523.324,-523.32"
         transform="translate(0,-2.5000001e-5)"
         id="path49" /></clipPath><clipPath
       clipPathUnits="userSpaceOnUse"
       id="clipPath51"><path
         d="m 1341,3434.29 c 0,-289.02 -234.3,-523.32 -523.324,-523.32 -289.024,0 -523.324,234.3 -523.324,523.32 0,289.02 234.3,523.32 523.324,523.32 289.024,0 523.324,-234.3 523.324,-523.32"
         transform="translate(0,-2.5000001e-5)"
         id="path51" /></clipPath><clipPath
       clipPathUnits="userSpaceOnUse"
       id="clipPath53"><path
         d="m 1341,3434.29 c 0,-289.02 -234.3,-523.32 -523.324,-523.32 -289.024,0 -523.324,234.3 -523.324,523.32 0,289.02 234.3,523.32 523.324,523.32 289.024,0 523.324,-234.3 523.324,-523.32"
         transform="translate(0,-2.5000001e-5)"
         id="path53" /></clipPath></defs><g
     id="g1"
     inkscape:groupmode="layer"
     inkscape:label="1"
     transform="matrix(0.26458333,0,0,0.26458334,-175.95285,-9.42534)"><path
       id="path2"
       d="M 625.77221,563.30569 H 1192.7002 V -3.6236292 H 625.77221 Z"
       style="fill:#ffffff;fill-opacity:1;fill-rule:nonzero;stroke:none;stroke-width:0.133333" /><g
       id="g26"><path
         id="path11-6"
         d="m 804.57169,105.39933 c 0,38.536 -31.24,69.776 -69.77654,69.776 -38.53653,0 -69.77653,-31.24 -69.77653,-69.776 0,-38.536001 31.24,-69.776 69.77653,-69.776 38.53654,0 69.77654,31.239999 69.77654,69.776"
         style="fill:#183651;fill-opacity:1;fill-rule:nonzero;stroke:none;stroke-width:0.133333" /><path
         id="path12-0"
         d="m 717.473,3151.19 h 200.414 v 135.031 H 717.473 Z"
         style="fill:#f9b095;fill-opacity:1;fill-rule:nonzero;stroke:none"
         transform="matrix(0.13333333,0,0,-0.13333333,625.77169,563.30465)"
         clip-path="url(#clipPath13)" /><path
         id="path14-6"
         d="m 863.66,3169.06 c -0.578,0 -1.156,0 -1.734,0 -32.516,0.26 -65.656,7.53 -95.848,19.5 -16.558,6.57 -34.539,15.44 -48.605,27.82 v 69.84 h 200.414 v -111.74 c -17.813,-3.15 -36.157,-5.42 -54.227,-5.42"
         style="fill:#e4a187;fill-opacity:1;fill-rule:nonzero;stroke:none"
         transform="matrix(0.13333333,0,0,-0.13333333,625.77169,563.30465)"
         clip-path="url(#clipPath15)" /><path
         id="path16-2"
         d="m 1038.85,3536.29 c 0.69,4.9 9.29,12.9 13.06,15.6 8.38,6 16.84,-0.18 19.29,-8 2.19,-6.99 2.39,-14.87 2.92,-22.14 1.28,-17.7 -1.48,-35.09 -9.72,-51.08 -5.49,-10.65 -14.1,-19.41 -24.31,-26.03 0,0 -10.98,-5.29 -13.17,6.89 l 11.93,84.76"
         style="fill:#f9b095;fill-opacity:1;fill-rule:nonzero;stroke:none"
         transform="matrix(0.13333333,0,0,-0.13333333,625.77169,563.30465)"
         clip-path="url(#clipPath17)" /><path
         id="path18"
         d="m 1037.09,3525.66 c 0.5,3.51 6.66,9.23 9.35,11.15 6,4.3 12.06,-0.12 13.8,-5.71 1.57,-5.01 1.72,-10.65 2.1,-15.85 0.92,-12.68 -1.07,-25.11 -6.96,-36.55 -3.92,-7.63 -10.09,-13.89 -17.39,-18.63 0,0 -7.86,-3.78 -9.43,4.93 l 8.53,60.66"
         style="fill:#dd9c83;fill-opacity:1;fill-rule:nonzero;stroke:none"
         transform="matrix(0.13333333,0,0,-0.13333333,625.77169,563.30465)"
         clip-path="url(#clipPath19)" /><path
         id="path20"
         d="m 591.402,3536.29 c -0.683,4.9 -9.293,12.9 -13.058,15.6 -8.383,6 -16.84,-0.18 -19.289,-8 -2.192,-6.99 -2.395,-14.87 -2.918,-22.14 -1.289,-17.7 1.484,-35.09 9.718,-51.08 5.497,-10.65 14.102,-19.41 24.301,-26.03 0,0 10.992,-5.29 13.172,6.89 l -11.926,84.76"
         style="fill:#f9b095;fill-opacity:1;fill-rule:nonzero;stroke:none"
         transform="matrix(0.13333333,0,0,-0.13333333,625.77169,563.30465)"
         clip-path="url(#clipPath21)" /><path
         id="path22"
         d="m 593.152,3525.66 c -0.492,3.51 -6.644,9.23 -9.339,11.15 -6,4.3 -12.055,-0.12 -13.801,-5.71 -1.571,-5.01 -1.715,-10.65 -2.102,-15.85 -0.914,-12.68 1.074,-25.11 6.969,-36.55 3.926,-7.63 10.086,-13.89 17.383,-18.63 0,0 7.867,-3.78 9.426,4.93 l -8.536,60.66"
         style="fill:#dd9c83;fill-opacity:1;fill-rule:nonzero;stroke:none"
         transform="matrix(0.13333333,0,0,-0.13333333,625.77169,563.30465)"
         clip-path="url(#clipPath23)" /><path
         id="path24"
         d="m 1045.56,3520.34 c 0,-55.88 -9.95,-112.4 -37.15,-160.75 -23.781,-42.29 -59.449,-76.16 -97.734,-103.21 -31.063,-21.94 -64.383,-47.51 -103.688,-44.38 -40.98,3.26 -72.91,37.1 -102.851,63.52 -42.121,37.15 -75.352,83.3 -95.824,137.58 -12.625,33.45 -18.418,71.22 -18.418,107.24 0,180.67 102.003,294.31 227.832,294.31 125.828,0 227.833,-113.64 227.833,-294.31"
         style="fill:#f9b095;fill-opacity:1;fill-rule:nonzero;stroke:none"
         transform="matrix(0.13333333,0,0,-0.13333333,625.77169,563.30465)"
         clip-path="url(#clipPath25)" /><path
         id="path26"
         d="m 1167.65,3090.13 -249.763,65.32 H 717.473 l -249.762,-65.32 c 0,0 -115.758,-42.87 -128.613,-178.62 h 478.578 478.574 c -12.86,135.75 -128.6,178.62 -128.6,178.62"
         style="fill:#f9b095;fill-opacity:1;fill-rule:nonzero;stroke:none"
         transform="matrix(0.13333333,0,0,-0.13333333,625.77169,563.30465)"
         clip-path="url(#clipPath27)" /><path
         id="path28"
         d="m 1167.65,3090.13 -249.763,65.32 H 717.473 l -249.762,-65.32 c 0,0 -115.758,-42.87 -128.613,-178.62 h 478.578 478.574 c -12.86,135.75 -128.6,178.62 -128.6,178.62"
         style="fill:#ffffff;fill-opacity:1;fill-rule:nonzero;stroke:none"
         transform="matrix(0.13333333,0,0,-0.13333333,625.77169,563.30465)"
         clip-path="url(#clipPath29)" /><path
         id="path30"
         d="m 1167.65,3090.13 -184.841,48.34 -165.133,-226.96 -163.352,227.43 -186.613,-48.81 c 0,0 -115.758,-42.87 -128.613,-178.62 h 478.578 478.574 c -12.86,135.75 -128.6,178.62 -128.6,178.62"
         style="fill:#062138;fill-opacity:1;fill-rule:nonzero;stroke:none"
         transform="matrix(0.13333333,0,0,-0.13333333,625.77169,563.30465)"
         clip-path="url(#clipPath31)" /><path
         id="path32"
         d="m 795.762,3025.22 -46.02,-113.71 h 130.75 l -44.851,113.71 h -39.879"
         style="fill:#f9a72b;fill-opacity:1;fill-rule:nonzero;stroke:none"
         transform="matrix(0.13333333,0,0,-0.13333333,625.77169,563.30465)"
         clip-path="url(#clipPath33)" /><path
         id="path34"
         d="m 814.668,3153.22 -58.59,-78.59 40.723,-49.72 19.941,0.32 19.93,0.33 39.09,51.02 -61.094,76.64"
         style="fill:#f9a72b;fill-opacity:1;fill-rule:nonzero;stroke:none"
         transform="matrix(0.13333333,0,0,-0.13333333,625.77169,563.30465)"
         clip-path="url(#clipPath35)" /><path
         id="path36"
         d="m 756.078,3074.63 56.16,75.34 c -0.004,-0.01 -0.008,-0.01 -0.008,-0.02 l -56.152,-75.32"
         style="fill:#d3d2d2;fill-opacity:1;fill-rule:nonzero;stroke:none"
         transform="matrix(0.13333333,0,0,-0.13333333,625.77169,563.30465)"
         clip-path="url(#clipPath37)" /><path
         id="path38"
         d="m 796.801,3024.91 -40.723,49.72 56.152,75.32 c -6.585,-17.34 -18.414,-32.6 -22.816,-50.91 -4.531,-18.82 4.473,-37.32 24.031,-41.62 1.993,-0.43 3.922,-0.64 5.801,-0.64 15.981,0 27.844,14.9 34.559,28.16 2.015,4.01 3.808,8.16 5.418,12.38 l 16.539,-20.74 -39.09,-51.02 -39.871,-0.65"
         style="fill:#cd8923;fill-opacity:1;fill-rule:nonzero;stroke:none"
         transform="matrix(0.13333333,0,0,-0.13333333,625.77169,563.30465)"
         clip-path="url(#clipPath39)" /><path
         id="path40"
         d="m 1048.8,3542.59 c 0,0 -37.16,-173.79 -161.925,-223.79 0,0 -15.559,-38.59 -67.258,-38.59 -51.691,0 -67.258,38.59 -67.258,38.59 -124.761,50 -161.925,223.79 -161.925,223.79 -10.844,-194.5 129.117,-279.06 129.117,-279.06 76.269,-62.41 100.066,-51.69 100.066,-51.69 0,0 23.805,-10.72 100.063,51.69 0,0 138.59,78.84 129.12,279.06"
         style="fill:#351f17;fill-opacity:1;fill-rule:nonzero;stroke:none"
         transform="matrix(0.13333333,0,0,-0.13333333,625.77169,563.30465)"
         clip-path="url(#clipPath41)" /><path
         id="path42"
         d="m 817.676,3376.86 c 0,0 -51.567,15.73 -65.317,-58.06 0,0 -14.582,1.88 -37.73,20.37 0,0 34.633,86.47 103.047,37.69"
         style="fill:#351f17;fill-opacity:1;fill-rule:nonzero;stroke:none"
         transform="matrix(0.13333333,0,0,-0.13333333,625.77169,563.30465)"
         clip-path="url(#clipPath43)" /><path
         id="path44"
         d="m 822.09,3376.86 c 0,0 51.578,15.73 65.312,-58.06 0,0 14.586,1.88 37.735,20.37 0,0 -34.633,86.47 -103.047,37.69"
         style="fill:#351f17;fill-opacity:1;fill-rule:nonzero;stroke:none"
         transform="matrix(0.13333333,0,0,-0.13333333,625.77169,563.30465)"
         clip-path="url(#clipPath45)" /><path
         id="path46"
         d="m 590.434,3542.59 c 0,0 33.437,203.47 137.75,183.47 0,0 94.312,-58.68 172.91,1.37 0,0 95.359,3.22 147.706,-184.84 0,0 13.06,200.61 -130.913,272.06 0,0 -133.199,61.45 -247.188,-30.01 0,0 -107.98,-85.32 -80.265,-242.05"
         style="fill:#351f17;fill-opacity:1;fill-rule:nonzero;stroke:none"
         transform="matrix(0.13333333,0,0,-0.13333333,625.77169,563.30465)"
         clip-path="url(#clipPath47)" /><path
         id="path48"
         d="m 817.676,2911.51 -163.352,227.43 -130.597,-34.16 166.898,-117.5 -42.867,-18.91 77.16,-56.86 h 92.758"
         style="fill:#001930;fill-opacity:1;fill-rule:nonzero;stroke:none"
         transform="matrix(0.13333333,0,0,-0.13333333,625.77169,563.30465)"
         clip-path="url(#clipPath49)" /><path
         id="path50"
         d="m 817.676,2911.2 163.344,227.42 130.61,-34.15 -166.907,-117.51 42.875,-18.91 -77.164,-56.85 h -92.758"
         style="fill:#001930;fill-opacity:1;fill-rule:nonzero;stroke:none"
         transform="matrix(0.13333333,0,0,-0.13333333,625.77169,563.30465)"
         clip-path="url(#clipPath51)" /><path
         id="path52"
         d="m 619.176,3150.67 97.953,45.95 99.867,-41.71 99.863,41.71 104.661,-45.95 -147.985,-99.09 -56.539,81 -60.918,-81 -136.902,99.09"
         style="fill:#e5e4e4;fill-opacity:1;fill-rule:nonzero;stroke:none"
         transform="matrix(0.13333333,0,0,-0.13333333,625.77169,563.30465)"
         clip-path="url(#clipPath53)" /></g></g></svg>
