<?xml version="1.0" encoding="UTF-8" standalone="no"?>
<!-- Created with Inkscape (http://www.inkscape.org/) -->

<svg
   width="36.923489mm"
   height="36.923138mm"
   viewBox="0 0 36.923488 36.923137"
   version="1.1"
   id="svg1"
   xml:space="preserve"
   xmlns:inkscape="http://www.inkscape.org/namespaces/inkscape"
   xmlns:sodipodi="http://sodipodi.sourceforge.net/DTD/sodipodi-0.dtd"
   xmlns="http://www.w3.org/2000/svg"
   xmlns:svg="http://www.w3.org/2000/svg"><sodipodi:namedview
     id="namedview1"
     pagecolor="#ffffff"
     bordercolor="#000000"
     borderopacity="0.25"
     inkscape:showpageshadow="2"
     inkscape:pageopacity="0.0"
     inkscape:pagecheckerboard="0"
     inkscape:deskcolor="#d1d1d1"
     inkscape:document-units="mm"><inkscape:page
       x="-1.2510025e-06"
       y="-1.1390291e-07"
       width="36.923489"
       height="36.923138"
       id="page1"
       margin="0"
       bleed="0" /></sodipodi:namedview><defs
     id="defs1"><clipPath
       clipPathUnits="userSpaceOnUse"
       id="clipPath55"><path
         d="m 2649.31,3434.29 c 0,-289.02 -234.3,-523.32 -523.32,-523.32 -289.03,0 -523.33,234.3 -523.33,523.32 0,289.02 234.3,523.32 523.33,523.32 289.02,0 523.32,-234.3 523.32,-523.32"
         transform="translate(0,-2.5000001e-5)"
         id="path55" /></clipPath><clipPath
       clipPathUnits="userSpaceOnUse"
       id="clipPath57"><path
         d="m 2649.31,3434.29 c 0,-289.02 -234.3,-523.32 -523.32,-523.32 -289.03,0 -523.33,234.3 -523.33,523.32 0,289.02 234.3,523.32 523.33,523.32 289.02,0 523.32,-234.3 523.32,-523.32"
         transform="translate(0,-2.5000001e-5)"
         id="path57" /></clipPath><clipPath
       clipPathUnits="userSpaceOnUse"
       id="clipPath59"><path
         d="m 2649.31,3434.29 c 0,-289.02 -234.3,-523.32 -523.32,-523.32 -289.03,0 -523.33,234.3 -523.33,523.32 0,289.02 234.3,523.32 523.33,523.32 289.02,0 523.32,-234.3 523.32,-523.32"
         transform="translate(0,-2.5000001e-5)"
         id="path59" /></clipPath><clipPath
       clipPathUnits="userSpaceOnUse"
       id="clipPath61"><path
         d="m 2649.31,3434.29 c 0,-289.02 -234.3,-523.32 -523.32,-523.32 -289.03,0 -523.33,234.3 -523.33,523.32 0,289.02 234.3,523.32 523.33,523.32 289.02,0 523.32,-234.3 523.32,-523.32"
         transform="translate(0,-2.5000001e-5)"
         id="path61" /></clipPath><clipPath
       clipPathUnits="userSpaceOnUse"
       id="clipPath63"><path
         d="m 2649.31,3434.29 c 0,-289.02 -234.3,-523.32 -523.32,-523.32 -289.03,0 -523.33,234.3 -523.33,523.32 0,289.02 234.3,523.32 523.33,523.32 289.02,0 523.32,-234.3 523.32,-523.32"
         transform="translate(0,-2.5000001e-5)"
         id="path63" /></clipPath><clipPath
       clipPathUnits="userSpaceOnUse"
       id="clipPath65"><path
         d="m 2649.31,3434.29 c 0,-289.02 -234.3,-523.32 -523.32,-523.32 -289.03,0 -523.33,234.3 -523.33,523.32 0,289.02 234.3,523.32 523.33,523.32 289.02,0 523.32,-234.3 523.32,-523.32"
         transform="translate(0,-2.5000001e-5)"
         id="path65" /></clipPath><clipPath
       clipPathUnits="userSpaceOnUse"
       id="clipPath67"><path
         d="m 2649.31,3434.29 c 0,-289.02 -234.3,-523.32 -523.32,-523.32 -289.03,0 -523.33,234.3 -523.33,523.32 0,289.02 234.3,523.32 523.33,523.32 289.02,0 523.32,-234.3 523.32,-523.32"
         transform="translate(0,-2.5000001e-5)"
         id="path67" /></clipPath><clipPath
       clipPathUnits="userSpaceOnUse"
       id="clipPath69"><path
         d="m 2649.31,3434.29 c 0,-289.02 -234.3,-523.32 -523.32,-523.32 -289.03,0 -523.33,234.3 -523.33,523.32 0,289.02 234.3,523.32 523.33,523.32 289.02,0 523.32,-234.3 523.32,-523.32"
         transform="translate(0,-2.5000001e-5)"
         id="path69" /></clipPath><clipPath
       clipPathUnits="userSpaceOnUse"
       id="clipPath71"><path
         d="m 2649.31,3434.29 c 0,-289.02 -234.3,-523.32 -523.32,-523.32 -289.03,0 -523.33,234.3 -523.33,523.32 0,289.02 234.3,523.32 523.33,523.32 289.02,0 523.32,-234.3 523.32,-523.32"
         transform="translate(0,-2.5000001e-5)"
         id="path71" /></clipPath><clipPath
       clipPathUnits="userSpaceOnUse"
       id="clipPath73"><path
         d="m 2649.31,3434.29 c 0,-289.02 -234.3,-523.32 -523.32,-523.32 -289.03,0 -523.33,234.3 -523.33,523.32 0,289.02 234.3,523.32 523.33,523.32 289.02,0 523.32,-234.3 523.32,-523.32"
         transform="translate(0,-2.5000001e-5)"
         id="path73" /></clipPath><clipPath
       clipPathUnits="userSpaceOnUse"
       id="clipPath75"><path
         d="m 2649.31,3434.29 c 0,-289.02 -234.3,-523.32 -523.32,-523.32 -289.03,0 -523.33,234.3 -523.33,523.32 0,289.02 234.3,523.32 523.33,523.32 289.02,0 523.32,-234.3 523.32,-523.32"
         transform="translate(0,-2.5000001e-5)"
         id="path75" /></clipPath><clipPath
       clipPathUnits="userSpaceOnUse"
       id="clipPath77"><path
         d="m 2649.31,3434.29 c 0,-289.02 -234.3,-523.32 -523.32,-523.32 -289.03,0 -523.33,234.3 -523.33,523.32 0,289.02 234.3,523.32 523.33,523.32 289.02,0 523.32,-234.3 523.32,-523.32"
         transform="translate(0,-2.5000001e-5)"
         id="path77" /></clipPath><clipPath
       clipPathUnits="userSpaceOnUse"
       id="clipPath79"><path
         d="m 2649.31,3434.29 c 0,-289.02 -234.3,-523.32 -523.32,-523.32 -289.03,0 -523.33,234.3 -523.33,523.32 0,289.02 234.3,523.32 523.33,523.32 289.02,0 523.32,-234.3 523.32,-523.32"
         transform="translate(0,-2.5000001e-5)"
         id="path79" /></clipPath><clipPath
       clipPathUnits="userSpaceOnUse"
       id="clipPath81"><path
         d="m 2649.31,3434.29 c 0,-289.02 -234.3,-523.32 -523.32,-523.32 -289.03,0 -523.33,234.3 -523.33,523.32 0,289.02 234.3,523.32 523.33,523.32 289.02,0 523.32,-234.3 523.32,-523.32"
         transform="translate(0,-2.5000001e-5)"
         id="path81" /></clipPath></defs><g
     id="g1"
     inkscape:groupmode="layer"
     inkscape:label="1"
     transform="matrix(0.26458333,0,0,0.26458334,-222.10706,-9.42534)"><path
       id="path2"
       d="M 625.77221,563.30569 H 1192.7002 V -3.6236292 H 625.77221 Z"
       style="fill:#ffffff;fill-opacity:1;fill-rule:nonzero;stroke:none;stroke-width:0.133333" /><g
       id="g27"><path
         id="path9"
         d="m 979.01301,105.39933 c 0,38.536 -31.23999,69.776 -69.77599,69.776 -38.53734,0 -69.77734,-31.24 -69.77734,-69.776 0,-38.536001 31.24,-69.776 69.77734,-69.776 38.536,0 69.77599,31.239999 69.77599,69.776"
         style="fill:#44bfa7;fill-opacity:1;fill-rule:nonzero;stroke:none;stroke-width:0.133333" /><path
         id="path54"
         d="m 1886.48,3478.33 c -2.93,-4.3 -11.91,-368.23 52.04,-442.74 h 361.97 c 0,0 98.86,279.4 31.52,442.74 h -447.68 2.15"
         style="fill:#150a05;fill-opacity:1;fill-rule:nonzero;stroke:none"
         transform="matrix(0.13333333,0,0,-0.13333333,625.77169,563.30465)"
         clip-path="url(#clipPath55)" /><path
         id="path56"
         d="m 2031.56,3143.25 h 200.41 v 135.039 h -200.41 z"
         style="fill:#f9b095;fill-opacity:1;fill-rule:nonzero;stroke:none"
         transform="matrix(0.13333333,0,0,-0.13333333,625.77169,563.30465)"
         clip-path="url(#clipPath57)" /><path
         id="path58"
         d="m 2177.64,3161.11 c -0.54,0 -1.09,0.01 -1.63,0.01 -32.51,0.27 -65.65,7.53 -95.84,19.5 -16.56,6.57 -34.54,15.44 -48.61,27.83 v 69.84 h 200.41 v -111.74 c -17.85,-3.16 -36.22,-5.44 -54.33,-5.44"
         style="fill:#e4a187;fill-opacity:1;fill-rule:nonzero;stroke:none"
         transform="matrix(0.13333333,0,0,-0.13333333,625.77169,563.30465)"
         clip-path="url(#clipPath59)" /><path
         id="path60"
         d="m 2348.7,3532.36 c 0.68,4.97 9.12,13.06 12.8,15.79 8.24,6.08 16.54,-0.17 18.93,-8.09 2.15,-7.09 2.35,-15.07 2.87,-22.42 1.27,-17.93 -1.46,-35.53 -9.54,-51.7 -5.39,-10.79 -13.83,-19.66 -23.84,-26.35 0,0 -10.78,-5.36 -12.92,6.96 l 11.7,85.81"
         style="fill:#f9b095;fill-opacity:1;fill-rule:nonzero;stroke:none"
         transform="matrix(0.13333333,0,0,-0.13333333,625.77169,563.30465)"
         clip-path="url(#clipPath61)" /><path
         id="path62"
         d="m 2346.99,3521.59 c 0.48,3.56 6.52,9.34 9.15,11.3 5.9,4.35 11.83,-0.12 13.56,-5.79 1.54,-5.07 1.68,-10.78 2.05,-16.04 0.89,-12.83 -1.06,-25.42 -6.83,-37 -3.86,-7.72 -9.91,-14.07 -17.06,-18.86 0,0 -7.71,-3.82 -9.25,4.99 l 8.38,61.4"
         style="fill:#dd9c83;fill-opacity:1;fill-rule:nonzero;stroke:none"
         transform="matrix(0.13333333,0,0,-0.13333333,625.77169,563.30465)"
         clip-path="url(#clipPath63)" /><path
         id="path64"
         d="m 1909.74,3532.36 c -0.68,4.97 -9.12,13.06 -12.81,15.79 -8.22,6.08 -16.51,-0.17 -18.92,-8.09 -2.16,-7.09 -2.36,-15.07 -2.87,-22.42 -1.25,-17.93 1.46,-35.53 9.53,-51.7 5.39,-10.79 13.84,-19.66 23.85,-26.35 0,0 10.78,-5.36 12.92,6.96 l -11.7,85.81"
         style="fill:#f9b095;fill-opacity:1;fill-rule:nonzero;stroke:none"
         transform="matrix(0.13333333,0,0,-0.13333333,625.77169,563.30465)"
         clip-path="url(#clipPath65)" /><path
         id="path66"
         d="m 1911.45,3521.59 c -0.48,3.56 -6.51,9.34 -9.16,11.3 -5.89,4.35 -11.83,-0.12 -13.54,-5.79 -1.54,-5.07 -1.67,-10.78 -2.07,-16.04 -0.88,-12.83 1.06,-25.42 6.84,-37 3.86,-7.72 9.9,-14.07 17.07,-18.86 0,0 7.71,-3.82 9.25,4.99 l -8.39,61.4"
         style="fill:#dd9c83;fill-opacity:1;fill-rule:nonzero;stroke:none"
         transform="matrix(0.13333333,0,0,-0.13333333,625.77169,563.30465)"
         clip-path="url(#clipPath67)" /><path
         id="path68"
         d="m 2355.28,3516.22 c 0,-56.58 -9.76,-113.79 -36.45,-162.75 -23.32,-42.81 -58.31,-77.09 -95.88,-104.48 -30.47,-22.21 -63.16,-48.08 -101.71,-44.93 -40.22,3.31 -71.54,37.57 -100.91,64.31 -41.32,37.61 -73.92,84.32 -94,139.28 -12.38,33.87 -18.08,72.1 -18.08,108.57 0,182.89 100.07,297.93 223.51,297.93 123.45,0 223.52,-115.04 223.52,-297.93"
         style="fill:#f9b095;fill-opacity:1;fill-rule:nonzero;stroke:none"
         transform="matrix(0.13333333,0,0,-0.13333333,625.77169,563.30465)"
         clip-path="url(#clipPath69)" /><path
         id="path70"
         d="m 2436.69,3082.2 -217.61,65.31 h -174.61 l -217.62,-65.31 c 0,0 -100.85,-42.88 -112.05,-178.62 h 416.96 416.98 c -11.2,135.74 -112.05,178.62 -112.05,178.62"
         style="fill:#f9b095;fill-opacity:1;fill-rule:nonzero;stroke:none"
         transform="matrix(0.13333333,0,0,-0.13333333,625.77169,563.30465)"
         clip-path="url(#clipPath71)" /><path
         id="path72"
         d="m 2436.69,3082.2 -120.34,36.11 -184.59,-184.44 -185.11,184.28 -119.8,-35.95 c 0,0 -100.85,-42.88 -112.05,-178.62 h 416.96 416.98 c -11.2,135.74 -112.05,178.62 -112.05,178.62"
         style="fill:#ed3947;fill-opacity:1;fill-rule:nonzero;stroke:none"
         transform="matrix(0.13333333,0,0,-0.13333333,625.77169,563.30465)"
         clip-path="url(#clipPath73)" /><path
         id="path74"
         d="m 1980.08,3741.51 c 0,0 107.64,-170.71 374.5,-199.75 0,0 50.5,194.47 -137.19,289.03 0,0 -143.64,59.28 -237.31,-89.28"
         style="fill:#351f17;fill-opacity:1;fill-rule:nonzero;stroke:none"
         transform="matrix(0.13333333,0,0,-0.13333333,625.77169,563.30465)"
         clip-path="url(#clipPath75)" /><path
         id="path76"
         d="m 2007.67,3706.98 c 0,0 -69.5,-44.97 -99.68,-170.48 0,0 -32.34,236.5 134.95,266.04 l -35.27,-95.56"
         style="fill:#351f17;fill-opacity:1;fill-rule:nonzero;stroke:none"
         transform="matrix(0.13333333,0,0,-0.13333333,625.77169,563.30465)"
         clip-path="url(#clipPath77)" /><path
         id="path78"
         d="m 2280.43,3561.43 c 0,0 71.64,-455.63 -41.55,-584.58 0,0 144.71,21.49 151.87,220.65 0,0 25.79,406.91 -72.14,547.34 l -38.18,-183.41"
         style="fill:#351f17;fill-opacity:1;fill-rule:nonzero;stroke:none"
         transform="matrix(0.13333333,0,0,-0.13333333,625.77169,563.30465)"
         clip-path="url(#clipPath79)" /><path
         id="path80"
         d="m 1974.21,2976.85 c 0,0 -166.6,19.75 -120.75,532.13 0,0 11.46,284.56 178.1,291.11 l -9.64,-107.97 c 0,0 -95.77,-28.52 -83.4,-253.69 0,0 -9.75,-362.72 35.69,-461.58"
         style="fill:#351f17;fill-opacity:1;fill-rule:nonzero;stroke:none"
         transform="matrix(0.13333333,0,0,-0.13333333,625.77169,563.30465)"
         clip-path="url(#clipPath81)" /></g></g></svg>
