<?xml version="1.0" encoding="UTF-8" standalone="no"?>
<!-- Created with Inkscape (http://www.inkscape.org/) -->

<svg
   width="36.923489mm"
   height="36.923138mm"
   viewBox="0 0 36.923488 36.923137"
   version="1.1"
   id="svg1"
   xml:space="preserve"
   xmlns:inkscape="http://www.inkscape.org/namespaces/inkscape"
   xmlns:sodipodi="http://sodipodi.sourceforge.net/DTD/sodipodi-0.dtd"
   xmlns="http://www.w3.org/2000/svg"
   xmlns:svg="http://www.w3.org/2000/svg"><sodipodi:namedview
     id="namedview1"
     pagecolor="#ffffff"
     bordercolor="#000000"
     borderopacity="0.25"
     inkscape:showpageshadow="2"
     inkscape:pageopacity="0.0"
     inkscape:pagecheckerboard="0"
     inkscape:deskcolor="#d1d1d1"
     inkscape:document-units="mm"><inkscape:page
       x="-1.510963e-06"
       y="-1.1390291e-07"
       width="36.923489"
       height="36.923138"
       id="page1"
       margin="0"
       bleed="0" /></sodipodi:namedview><defs
     id="defs1"><clipPath
       clipPathUnits="userSpaceOnUse"
       id="clipPath83"><path
         d="m 3957.62,3434.29 c 0,-289.02 -234.3,-523.32 -523.32,-523.32 -289.03,0 -523.33,234.3 -523.33,523.32 0,289.02 234.3,523.32 523.33,523.32 289.02,0 523.32,-234.3 523.32,-523.32"
         transform="translate(0,-2.5000001e-5)"
         id="path83" /></clipPath><clipPath
       clipPathUnits="userSpaceOnUse"
       id="clipPath85"><path
         d="m 3957.62,3434.29 c 0,-289.02 -234.3,-523.32 -523.32,-523.32 -289.03,0 -523.33,234.3 -523.33,523.32 0,289.02 234.3,523.32 523.33,523.32 289.02,0 523.32,-234.3 523.32,-523.32"
         transform="translate(0,-2.5000001e-5)"
         id="path85" /></clipPath><clipPath
       clipPathUnits="userSpaceOnUse"
       id="clipPath87"><path
         d="m 3957.62,3434.29 c 0,-289.02 -234.3,-523.32 -523.32,-523.32 -289.03,0 -523.33,234.3 -523.33,523.32 0,289.02 234.3,523.32 523.33,523.32 289.02,0 523.32,-234.3 523.32,-523.32"
         transform="translate(0,-2.5000001e-5)"
         id="path87" /></clipPath><clipPath
       clipPathUnits="userSpaceOnUse"
       id="clipPath89"><path
         d="m 3957.62,3434.29 c 0,-289.02 -234.3,-523.32 -523.32,-523.32 -289.03,0 -523.33,234.3 -523.33,523.32 0,289.02 234.3,523.32 523.33,523.32 289.02,0 523.32,-234.3 523.32,-523.32"
         transform="translate(0,-2.5000001e-5)"
         id="path89" /></clipPath><clipPath
       clipPathUnits="userSpaceOnUse"
       id="clipPath91"><path
         d="m 3957.62,3434.29 c 0,-289.02 -234.3,-523.32 -523.32,-523.32 -289.03,0 -523.33,234.3 -523.33,523.32 0,289.02 234.3,523.32 523.33,523.32 289.02,0 523.32,-234.3 523.32,-523.32"
         transform="translate(0,-2.5000001e-5)"
         id="path91" /></clipPath><clipPath
       clipPathUnits="userSpaceOnUse"
       id="clipPath93"><path
         d="m 3957.62,3434.29 c 0,-289.02 -234.3,-523.32 -523.32,-523.32 -289.03,0 -523.33,234.3 -523.33,523.32 0,289.02 234.3,523.32 523.33,523.32 289.02,0 523.32,-234.3 523.32,-523.32"
         transform="translate(0,-2.5000001e-5)"
         id="path93" /></clipPath><clipPath
       clipPathUnits="userSpaceOnUse"
       id="clipPath95"><path
         d="m 3957.62,3434.29 c 0,-289.02 -234.3,-523.32 -523.32,-523.32 -289.03,0 -523.33,234.3 -523.33,523.32 0,289.02 234.3,523.32 523.33,523.32 289.02,0 523.32,-234.3 523.32,-523.32"
         transform="translate(0,-2.5000001e-5)"
         id="path95" /></clipPath><clipPath
       clipPathUnits="userSpaceOnUse"
       id="clipPath97"><path
         d="m 3957.62,3434.29 c 0,-289.02 -234.3,-523.32 -523.32,-523.32 -289.03,0 -523.33,234.3 -523.33,523.32 0,289.02 234.3,523.32 523.33,523.32 289.02,0 523.32,-234.3 523.32,-523.32"
         transform="translate(0,-2.5000001e-5)"
         id="path97" /></clipPath><clipPath
       clipPathUnits="userSpaceOnUse"
       id="clipPath99"><path
         d="m 3957.62,3434.29 c 0,-289.02 -234.3,-523.32 -523.32,-523.32 -289.03,0 -523.33,234.3 -523.33,523.32 0,289.02 234.3,523.32 523.33,523.32 289.02,0 523.32,-234.3 523.32,-523.32"
         transform="translate(0,-2.5000001e-5)"
         id="path99" /></clipPath><clipPath
       clipPathUnits="userSpaceOnUse"
       id="clipPath101"><path
         d="m 3957.62,3434.29 c 0,-289.02 -234.3,-523.32 -523.32,-523.32 -289.03,0 -523.33,234.3 -523.33,523.32 0,289.02 234.3,523.32 523.33,523.32 289.02,0 523.32,-234.3 523.32,-523.32"
         transform="translate(0,-2.5000001e-5)"
         id="path101" /></clipPath><clipPath
       clipPathUnits="userSpaceOnUse"
       id="clipPath103"><path
         d="m 3957.62,3434.29 c 0,-289.02 -234.3,-523.32 -523.32,-523.32 -289.03,0 -523.33,234.3 -523.33,523.32 0,289.02 234.3,523.32 523.33,523.32 289.02,0 523.32,-234.3 523.32,-523.32"
         transform="translate(0,-2.5000001e-5)"
         id="path103" /></clipPath><clipPath
       clipPathUnits="userSpaceOnUse"
       id="clipPath105"><path
         d="m 3957.62,3434.29 c 0,-289.02 -234.3,-523.32 -523.32,-523.32 -289.03,0 -523.33,234.3 -523.33,523.32 0,289.02 234.3,523.32 523.33,523.32 289.02,0 523.32,-234.3 523.32,-523.32"
         transform="translate(0,-2.5000001e-5)"
         id="path105" /></clipPath><clipPath
       clipPathUnits="userSpaceOnUse"
       id="clipPath107"><path
         d="m 3957.62,3434.29 c 0,-289.02 -234.3,-523.32 -523.32,-523.32 -289.03,0 -523.33,234.3 -523.33,523.32 0,289.02 234.3,523.32 523.33,523.32 289.02,0 523.32,-234.3 523.32,-523.32"
         transform="translate(0,-2.5000001e-5)"
         id="path107" /></clipPath><clipPath
       clipPathUnits="userSpaceOnUse"
       id="clipPath109"><path
         d="m 3957.62,3434.29 c 0,-289.02 -234.3,-523.32 -523.32,-523.32 -289.03,0 -523.33,234.3 -523.33,523.32 0,289.02 234.3,523.32 523.33,523.32 289.02,0 523.32,-234.3 523.32,-523.32"
         transform="translate(0,-2.5000001e-5)"
         id="path109" /></clipPath><clipPath
       clipPathUnits="userSpaceOnUse"
       id="clipPath111"><path
         d="m 3957.62,3434.29 c 0,-289.02 -234.3,-523.32 -523.32,-523.32 -289.03,0 -523.33,234.3 -523.33,523.32 0,289.02 234.3,523.32 523.33,523.32 289.02,0 523.32,-234.3 523.32,-523.32"
         transform="translate(0,-2.5000001e-5)"
         id="path111" /></clipPath><clipPath
       clipPathUnits="userSpaceOnUse"
       id="clipPath113"><path
         d="m 3957.62,3434.29 c 0,-289.02 -234.3,-523.32 -523.32,-523.32 -289.03,0 -523.33,234.3 -523.33,523.32 0,289.02 234.3,523.32 523.33,523.32 289.02,0 523.32,-234.3 523.32,-523.32"
         transform="translate(0,-2.5000001e-5)"
         id="path113" /></clipPath><clipPath
       clipPathUnits="userSpaceOnUse"
       id="clipPath115"><path
         d="m 3957.62,3434.29 c 0,-289.02 -234.3,-523.32 -523.32,-523.32 -289.03,0 -523.33,234.3 -523.33,523.32 0,289.02 234.3,523.32 523.33,523.32 289.02,0 523.32,-234.3 523.32,-523.32"
         transform="translate(0,-2.5000001e-5)"
         id="path115" /></clipPath><clipPath
       clipPathUnits="userSpaceOnUse"
       id="clipPath117"><path
         d="m 3957.62,3434.29 c 0,-289.02 -234.3,-523.32 -523.32,-523.32 -289.03,0 -523.33,234.3 -523.33,523.32 0,289.02 234.3,523.32 523.33,523.32 289.02,0 523.32,-234.3 523.32,-523.32"
         transform="translate(0,-2.5000001e-5)"
         id="path117" /></clipPath><clipPath
       clipPathUnits="userSpaceOnUse"
       id="clipPath119"><path
         d="m 3957.62,3434.29 c 0,-289.02 -234.3,-523.32 -523.32,-523.32 -289.03,0 -523.33,234.3 -523.33,523.32 0,289.02 234.3,523.32 523.33,523.32 289.02,0 523.32,-234.3 523.32,-523.32"
         transform="translate(0,-2.5000001e-5)"
         id="path119" /></clipPath></defs><g
     id="g1"
     inkscape:groupmode="layer"
     inkscape:label="1"
     transform="matrix(0.26458333,0,0,0.26458334,-268.2613,-9.42534)"><path
       id="path2"
       d="M 625.77221,563.30569 H 1192.7002 V -3.6236292 H 625.77221 Z"
       style="fill:#ffffff;fill-opacity:1;fill-rule:nonzero;stroke:none;stroke-width:0.133333" /><g
       id="g28"><path
         id="path7"
         d="m 1153.4543,105.39933 c 0,38.536 -31.24,69.776 -69.776,69.776 -38.5373,0 -69.7773,-31.24 -69.7773,-69.776 0,-38.536001 31.24,-69.776 69.7773,-69.776 38.536,0 69.776,31.239999 69.776,69.776"
         style="fill:#f9a72b;fill-opacity:1;fill-rule:nonzero;stroke:none;stroke-width:0.133333" /><path
         id="path82"
         d="m 3351.82,3138.2 h 200.418 v 135.031 H 3351.82 Z"
         style="fill:#f9b095;fill-opacity:1;fill-rule:nonzero;stroke:none"
         transform="matrix(0.13333333,0,0,-0.13333333,625.77169,563.30465)"
         clip-path="url(#clipPath83)" /><path
         id="path84"
         d="m 3498.01,3156.06 c -0.58,0 -1.16,0.01 -1.73,0.01 -32.52,0.26 -65.67,7.53 -95.85,19.49 -16.56,6.58 -34.54,15.44 -48.61,27.83 v 69.84 h 200.42 v -111.74 c -17.82,-3.15 -36.17,-5.43 -54.23,-5.43"
         style="fill:#e4a187;fill-opacity:1;fill-rule:nonzero;stroke:none"
         transform="matrix(0.13333333,0,0,-0.13333333,625.77169,563.30465)"
         clip-path="url(#clipPath85)" /><path
         id="path86"
         d="m 3668.96,3527.31 c 0.68,4.97 9.12,13.06 12.81,15.78 8.23,6.09 16.52,-0.17 18.92,-8.09 2.15,-7.08 2.35,-15.06 2.87,-22.42 1.25,-17.92 -1.46,-35.53 -9.54,-51.7 -5.38,-10.79 -13.83,-19.65 -23.84,-26.35 0,0 -10.78,-5.36 -12.92,6.96 l 11.7,85.82"
         style="fill:#f9b095;fill-opacity:1;fill-rule:nonzero;stroke:none"
         transform="matrix(0.13333333,0,0,-0.13333333,625.77169,563.30465)"
         clip-path="url(#clipPath87)" /><path
         id="path88"
         d="m 3667.24,3516.54 c 0.49,3.55 6.52,9.34 9.17,11.3 5.88,4.35 11.82,-0.13 13.54,-5.8 1.53,-5.07 1.69,-10.77 2.05,-16.04 0.9,-12.83 -1.04,-25.42 -6.81,-36.99 -3.87,-7.72 -9.92,-14.07 -17.08,-18.86 0,0 -7.71,-3.83 -9.25,4.99 l 8.38,61.4"
         style="fill:#dd9c83;fill-opacity:1;fill-rule:nonzero;stroke:none"
         transform="matrix(0.13333333,0,0,-0.13333333,625.77169,563.30465)"
         clip-path="url(#clipPath89)" /><path
         id="path90"
         d="m 3230,3527.31 c -0.68,4.97 -9.12,13.06 -12.81,15.78 -8.23,6.09 -16.53,-0.17 -18.93,-8.09 -2.15,-7.08 -2.34,-15.06 -2.86,-22.42 -1.26,-17.92 1.46,-35.53 9.53,-51.7 5.39,-10.79 13.84,-19.65 23.84,-26.35 0,0 10.79,-5.36 12.93,6.96 l -11.7,85.82"
         style="fill:#f9b095;fill-opacity:1;fill-rule:nonzero;stroke:none"
         transform="matrix(0.13333333,0,0,-0.13333333,625.77169,563.30465)"
         clip-path="url(#clipPath91)" /><path
         id="path92"
         d="m 3231.72,3516.54 c -0.49,3.55 -6.52,9.34 -9.17,11.3 -5.89,4.35 -11.83,-0.13 -13.55,-5.8 -1.53,-5.07 -1.68,-10.77 -2.05,-16.04 -0.9,-12.83 1.05,-25.42 6.82,-36.99 3.86,-7.72 9.91,-14.07 17.07,-18.86 0,0 7.71,-3.83 9.25,4.99 l -8.37,61.4"
         style="fill:#dd9c83;fill-opacity:1;fill-rule:nonzero;stroke:none"
         transform="matrix(0.13333333,0,0,-0.13333333,625.77169,563.30465)"
         clip-path="url(#clipPath93)" /><path
         id="path94"
         d="m 3675.54,3511.16 c 0,-56.57 -9.76,-113.78 -36.45,-162.74 -23.32,-42.82 -58.31,-77.1 -95.88,-104.48 -30.47,-22.21 -63.15,-48.09 -101.73,-44.93 -40.2,3.3 -71.51,37.56 -100.89,64.31 -41.31,37.6 -73.92,84.32 -94.01,139.27 -12.38,33.87 -18.07,72.11 -18.07,108.57 0,182.9 100.07,297.94 223.52,297.94 123.44,0 223.51,-115.04 223.51,-297.94"
         style="fill:#f9b095;fill-opacity:1;fill-rule:nonzero;stroke:none"
         transform="matrix(0.13333333,0,0,-0.13333333,625.77169,563.30465)"
         clip-path="url(#clipPath95)" /><path
         id="path96"
         d="m 3802,3077.14 -249.76,65.32 h -200.42 l -249.76,-65.32 c 0,0 -115.75,-42.88 -128.61,-178.62 h 478.58 478.57 c -12.86,135.74 -128.6,178.62 -128.6,178.62"
         style="fill:#f9b095;fill-opacity:1;fill-rule:nonzero;stroke:none"
         transform="matrix(0.13333333,0,0,-0.13333333,625.77169,563.30465)"
         clip-path="url(#clipPath97)" /><path
         id="path98"
         d="m 3802,3077.14 -249.76,65.32 h -200.42 l -249.76,-65.32 c 0,0 -115.75,-42.88 -128.61,-178.62 h 478.58 478.57 c -12.86,135.74 -128.6,178.62 -128.6,178.62"
         style="fill:#ffffff;fill-opacity:1;fill-rule:nonzero;stroke:none"
         transform="matrix(0.13333333,0,0,-0.13333333,625.77169,563.30465)"
         clip-path="url(#clipPath99)" /><path
         id="path100"
         d="m 3288.67,3721.66 c 0,0 74.98,-111.49 263.57,-124.35 0,0 -15.78,7.15 -34.35,55.73 0,0 61.53,-52.87 139.37,-87.16 l 17.93,-36.29 c 0,0 -0.14,18.52 17.02,15.26 0,0 14.3,145.34 -45.72,216.8 0,0 28.69,-1.43 47.21,-17.16 0,0 -27.2,57.17 -120.08,88.6 0,0 22.86,18.58 64.3,5.73 0,0 -54.83,25.71 -146.73,21.43 0,0 -180.24,7.2 -202.52,-138.59"
         style="fill:#351f17;fill-opacity:1;fill-rule:nonzero;stroke:none"
         transform="matrix(0.13333333,0,0,-0.13333333,625.77169,563.30465)"
         clip-path="url(#clipPath101)" /><path
         id="path102"
         d="m 3317.83,3695.15 -88.94,-164.82 c 0,0 -7.92,9.55 -11.7,12.76 0,0 -4.57,226.41 120.77,269.28 l -20.13,-117.22"
         style="fill:#351f17;fill-opacity:1;fill-rule:nonzero;stroke:none"
         transform="matrix(0.13333333,0,0,-0.13333333,625.77169,563.30465)"
         clip-path="url(#clipPath103)" /><path
         id="path104"
         d="m 3802,3077.14 -184.84,48.34 -165.13,-226.96 -163.36,227.42 -186.61,-48.8 c 0,0 -115.75,-42.88 -128.61,-178.62 h 478.58 478.57 c -12.86,135.74 -128.6,178.62 -128.6,178.62"
         style="fill:#393536;fill-opacity:1;fill-rule:nonzero;stroke:none"
         transform="matrix(0.13333333,0,0,-0.13333333,625.77169,563.30465)"
         clip-path="url(#clipPath105)" /><path
         id="path106"
         d="m 3430.11,3012.23 -46.01,-113.71 h 130.75 L 3470,3012.23 h -39.89"
         style="fill:#be1a2c;fill-opacity:1;fill-rule:nonzero;stroke:none"
         transform="matrix(0.13333333,0,0,-0.13333333,625.77169,563.30465)"
         clip-path="url(#clipPath107)" /><path
         id="path108"
         d="m 3449.01,3140.23 -58.58,-78.59 40.72,-49.72 19.93,0.32 19.95,0.33 39.08,51.02 -61.1,76.64"
         style="fill:#bf1b2c;fill-opacity:1;fill-rule:nonzero;stroke:none"
         transform="matrix(0.13333333,0,0,-0.13333333,625.77169,563.30465)"
         clip-path="url(#clipPath109)" /><path
         id="path110"
         d="m 3510.11,3063.59 -16.54,20.74 v 0 l 16.54,-20.74"
         style="fill:#d3d2d2;fill-opacity:1;fill-rule:nonzero;stroke:none"
         transform="matrix(0.13333333,0,0,-0.13333333,625.77169,563.30465)"
         clip-path="url(#clipPath111)" /><path
         id="path112"
         d="m 3431.15,3011.92 -40.72,49.72 56.16,75.33 c -6.59,-17.34 -18.42,-32.6 -22.83,-50.93 -4.52,-18.81 4.48,-37.31 24.03,-41.61 1.99,-0.44 3.92,-0.64 5.8,-0.64 15.98,0 27.86,14.9 34.56,28.16 2.03,4.01 3.81,8.16 5.42,12.38 l 16.54,-20.74 -39.08,-51.02 -39.88,-0.65"
         style="fill:#9f1523;fill-opacity:1;fill-rule:nonzero;stroke:none"
         transform="matrix(0.13333333,0,0,-0.13333333,625.77169,563.30465)"
         clip-path="url(#clipPath113)" /><path
         id="path114"
         d="m 3452.03,2898.52 -163.36,227.42 -130.6,-34.15 166.91,-117.51 -42.88,-18.91 77.16,-56.85 h 92.77"
         style="fill:#302d2e;fill-opacity:1;fill-rule:nonzero;stroke:none"
         transform="matrix(0.13333333,0,0,-0.13333333,625.77169,563.30465)"
         clip-path="url(#clipPath115)" /><path
         id="path116"
         d="m 3452.03,2898.21 163.35,227.42 130.6,-34.15 -166.9,-117.51 42.87,-18.91 -77.17,-56.85 h -92.75"
         style="fill:#302d2e;fill-opacity:1;fill-rule:nonzero;stroke:none"
         transform="matrix(0.13333333,0,0,-0.13333333,625.77169,563.30465)"
         clip-path="url(#clipPath117)" /><path
         id="path118"
         d="m 3253.52,3137.68 97.96,45.95 99.86,-41.71 99.87,41.71 104.67,-45.95 -147.99,-99.09 -56.55,80.99 -60.91,-80.99 -136.91,99.09"
         style="fill:#e5e4e4;fill-opacity:1;fill-rule:nonzero;stroke:none"
         transform="matrix(0.13333333,0,0,-0.13333333,625.77169,563.30465)"
         clip-path="url(#clipPath119)" /></g></g></svg>
