<?xml version="1.0" encoding="UTF-8" standalone="no"?>
<!-- Created with Inkscape (http://www.inkscape.org/) -->

<svg
   width="36.923389mm"
   height="36.923489mm"
   viewBox="0 0 36.923388 36.923488"
   version="1.1"
   id="svg1"
   xml:space="preserve"
   xmlns:inkscape="http://www.inkscape.org/namespaces/inkscape"
   xmlns:sodipodi="http://sodipodi.sourceforge.net/DTD/sodipodi-0.dtd"
   xmlns="http://www.w3.org/2000/svg"
   xmlns:svg="http://www.w3.org/2000/svg"><sodipodi:namedview
     id="namedview1"
     pagecolor="#ffffff"
     bordercolor="#000000"
     borderopacity="0.25"
     inkscape:showpageshadow="2"
     inkscape:pageopacity="0.0"
     inkscape:pagecheckerboard="0"
     inkscape:deskcolor="#d1d1d1"
     inkscape:document-units="mm"><inkscape:page
       x="-5.4253369e-06"
       y="-3.1304828e-07"
       width="36.923389"
       height="36.923489"
       id="page1"
       margin="0"
       bleed="0" /></sodipodi:namedview><defs
     id="defs1"><clipPath
       clipPathUnits="userSpaceOnUse"
       id="clipPath121"><path
         d="m 1341,2125.98 c 0,-289.02 -234.3,-523.33 -523.324,-523.33 -289.024,0 -523.324,234.31 -523.324,523.33 0,289.02 234.3,523.32 523.324,523.32 C 1106.7,2649.3 1341,2415 1341,2125.98"
         transform="translate(0,-2.5000001e-5)"
         id="path121" /></clipPath><clipPath
       clipPathUnits="userSpaceOnUse"
       id="clipPath123"><path
         d="m 1341,2125.98 c 0,-289.02 -234.3,-523.33 -523.324,-523.33 -289.024,0 -523.324,234.31 -523.324,523.33 0,289.02 234.3,523.32 523.324,523.32 C 1106.7,2649.3 1341,2415 1341,2125.98"
         transform="translate(0,-2.5000001e-5)"
         id="path123" /></clipPath><clipPath
       clipPathUnits="userSpaceOnUse"
       id="clipPath125"><path
         d="m 1341,2125.98 c 0,-289.02 -234.3,-523.33 -523.324,-523.33 -289.024,0 -523.324,234.31 -523.324,523.33 0,289.02 234.3,523.32 523.324,523.32 C 1106.7,2649.3 1341,2415 1341,2125.98"
         transform="translate(0,-2.5000001e-5)"
         id="path125" /></clipPath><clipPath
       clipPathUnits="userSpaceOnUse"
       id="clipPath127"><path
         d="m 1341,2125.98 c 0,-289.02 -234.3,-523.33 -523.324,-523.33 -289.024,0 -523.324,234.31 -523.324,523.33 0,289.02 234.3,523.32 523.324,523.32 C 1106.7,2649.3 1341,2415 1341,2125.98"
         transform="translate(0,-2.5000001e-5)"
         id="path127" /></clipPath><clipPath
       clipPathUnits="userSpaceOnUse"
       id="clipPath129"><path
         d="m 1341,2125.98 c 0,-289.02 -234.3,-523.33 -523.324,-523.33 -289.024,0 -523.324,234.31 -523.324,523.33 0,289.02 234.3,523.32 523.324,523.32 C 1106.7,2649.3 1341,2415 1341,2125.98"
         transform="translate(0,-2.5000001e-5)"
         id="path129" /></clipPath><clipPath
       clipPathUnits="userSpaceOnUse"
       id="clipPath131"><path
         d="m 1341,2125.98 c 0,-289.02 -234.3,-523.33 -523.324,-523.33 -289.024,0 -523.324,234.31 -523.324,523.33 0,289.02 234.3,523.32 523.324,523.32 C 1106.7,2649.3 1341,2415 1341,2125.98"
         transform="translate(0,-2.5000001e-5)"
         id="path131" /></clipPath><clipPath
       clipPathUnits="userSpaceOnUse"
       id="clipPath133"><path
         d="m 1341,2125.98 c 0,-289.02 -234.3,-523.33 -523.324,-523.33 -289.024,0 -523.324,234.31 -523.324,523.33 0,289.02 234.3,523.32 523.324,523.32 C 1106.7,2649.3 1341,2415 1341,2125.98"
         transform="translate(0,-2.5000001e-5)"
         id="path133" /></clipPath><clipPath
       clipPathUnits="userSpaceOnUse"
       id="clipPath135"><path
         d="m 1341,2125.98 c 0,-289.02 -234.3,-523.33 -523.324,-523.33 -289.024,0 -523.324,234.31 -523.324,523.33 0,289.02 234.3,523.32 523.324,523.32 C 1106.7,2649.3 1341,2415 1341,2125.98"
         transform="translate(0,-2.5000001e-5)"
         id="path135-2" /></clipPath><clipPath
       clipPathUnits="userSpaceOnUse"
       id="clipPath137"><path
         d="m 1341,2125.98 c 0,-289.02 -234.3,-523.33 -523.324,-523.33 -289.024,0 -523.324,234.31 -523.324,523.33 0,289.02 234.3,523.32 523.324,523.32 C 1106.7,2649.3 1341,2415 1341,2125.98"
         transform="translate(0,-2.5000001e-5)"
         id="path137" /></clipPath><clipPath
       clipPathUnits="userSpaceOnUse"
       id="clipPath139"><path
         d="m 1341,2125.98 c 0,-289.02 -234.3,-523.33 -523.324,-523.33 -289.024,0 -523.324,234.31 -523.324,523.33 0,289.02 234.3,523.32 523.324,523.32 C 1106.7,2649.3 1341,2415 1341,2125.98"
         transform="translate(0,-2.5000001e-5)"
         id="path139" /></clipPath><clipPath
       clipPathUnits="userSpaceOnUse"
       id="clipPath141"><path
         d="m 1341,2125.98 c 0,-289.02 -234.3,-523.33 -523.324,-523.33 -289.024,0 -523.324,234.31 -523.324,523.33 0,289.02 234.3,523.32 523.324,523.32 C 1106.7,2649.3 1341,2415 1341,2125.98"
         transform="translate(0,-2.5000001e-5)"
         id="path141" /></clipPath><clipPath
       clipPathUnits="userSpaceOnUse"
       id="clipPath143"><path
         d="m 1341,2125.98 c 0,-289.02 -234.3,-523.33 -523.324,-523.33 -289.024,0 -523.324,234.31 -523.324,523.33 0,289.02 234.3,523.32 523.324,523.32 C 1106.7,2649.3 1341,2415 1341,2125.98"
         transform="translate(0,-2.5000001e-5)"
         id="path143" /></clipPath><clipPath
       clipPathUnits="userSpaceOnUse"
       id="clipPath145"><path
         d="m 1341,2125.98 c 0,-289.02 -234.3,-523.33 -523.324,-523.33 -289.024,0 -523.324,234.31 -523.324,523.33 0,289.02 234.3,523.32 523.324,523.32 C 1106.7,2649.3 1341,2415 1341,2125.98"
         transform="translate(0,-2.5000001e-5)"
         id="path145" /></clipPath><clipPath
       clipPathUnits="userSpaceOnUse"
       id="clipPath147"><path
         d="m 1341,2125.98 c 0,-289.02 -234.3,-523.33 -523.324,-523.33 -289.024,0 -523.324,234.31 -523.324,523.33 0,289.02 234.3,523.32 523.324,523.32 C 1106.7,2649.3 1341,2415 1341,2125.98"
         transform="translate(0,-2.5000001e-5)"
         id="path147" /></clipPath><clipPath
       clipPathUnits="userSpaceOnUse"
       id="clipPath149"><path
         d="m 1341,2125.98 c 0,-289.02 -234.3,-523.33 -523.324,-523.33 -289.024,0 -523.324,234.31 -523.324,523.33 0,289.02 234.3,523.32 523.324,523.32 C 1106.7,2649.3 1341,2415 1341,2125.98"
         transform="translate(0,-2.5000001e-5)"
         id="path149" /></clipPath><clipPath
       clipPathUnits="userSpaceOnUse"
       id="clipPath151"><path
         d="m 1341,2125.98 c 0,-289.02 -234.3,-523.33 -523.324,-523.33 -289.024,0 -523.324,234.31 -523.324,523.33 0,289.02 234.3,523.32 523.324,523.32 C 1106.7,2649.3 1341,2415 1341,2125.98"
         transform="translate(0,-2.5000001e-5)"
         id="path151" /></clipPath><clipPath
       clipPathUnits="userSpaceOnUse"
       id="clipPath153"><path
         d="m 1341,2125.98 c 0,-289.02 -234.3,-523.33 -523.324,-523.33 -289.024,0 -523.324,234.31 -523.324,523.33 0,289.02 234.3,523.32 523.324,523.32 C 1106.7,2649.3 1341,2415 1341,2125.98"
         transform="translate(0,-2.5000001e-5)"
         id="path153" /></clipPath><clipPath
       clipPathUnits="userSpaceOnUse"
       id="clipPath155"><path
         d="m 1341,2125.98 c 0,-289.02 -234.3,-523.33 -523.324,-523.33 -289.024,0 -523.324,234.31 -523.324,523.33 0,289.02 234.3,523.32 523.324,523.32 C 1106.7,2649.3 1341,2415 1341,2125.98"
         transform="translate(0,-2.5000001e-5)"
         id="path155" /></clipPath><clipPath
       clipPathUnits="userSpaceOnUse"
       id="clipPath157"><path
         d="m 1341,2125.98 c 0,-289.02 -234.3,-523.33 -523.324,-523.33 -289.024,0 -523.324,234.31 -523.324,523.33 0,289.02 234.3,523.32 523.324,523.32 C 1106.7,2649.3 1341,2415 1341,2125.98"
         transform="translate(0,-2.5000001e-5)"
         id="path157" /></clipPath><clipPath
       clipPathUnits="userSpaceOnUse"
       id="clipPath159"><path
         d="m 1341,2125.98 c 0,-289.02 -234.3,-523.33 -523.324,-523.33 -289.024,0 -523.324,234.31 -523.324,523.33 0,289.02 234.3,523.32 523.324,523.32 C 1106.7,2649.3 1341,2415 1341,2125.98"
         transform="translate(0,-2.5000001e-5)"
         id="path159" /></clipPath><clipPath
       clipPathUnits="userSpaceOnUse"
       id="clipPath161"><path
         d="m 1341,2125.98 c 0,-289.02 -234.3,-523.33 -523.324,-523.33 -289.024,0 -523.324,234.31 -523.324,523.33 0,289.02 234.3,523.32 523.324,523.32 C 1106.7,2649.3 1341,2415 1341,2125.98"
         transform="translate(0,-2.5000001e-5)"
         id="path161" /></clipPath></defs><g
     id="g1"
     inkscape:groupmode="layer"
     inkscape:label="1"
     transform="matrix(0.26458333,0,0,0.26458334,-175.95285,-55.579615)"><path
       id="path2"
       d="M 625.77221,563.30569 H 1192.7002 V -3.6236292 H 625.77221 Z"
       style="fill:#ffffff;fill-opacity:1;fill-rule:nonzero;stroke:none;stroke-width:0.133333" /><g
       id="g33"><path
         id="path3-0"
         d="m 804.57169,279.84066 c 0,38.536 -31.24,69.77733 -69.77654,69.77733 -38.53653,0 -69.77653,-31.24133 -69.77653,-69.77733 0,-38.536 31.24,-69.776 69.77653,-69.776 38.53654,0 69.77654,31.24 69.77654,69.776"
         style="fill:#648f16;fill-opacity:1;fill-rule:nonzero;stroke:none;stroke-width:0.133333" /><path
         id="path120"
         d="m 721.883,1856.44 h 200.418 v 135.039 H 721.883 Z"
         style="fill:#f9b095;fill-opacity:1;fill-rule:nonzero;stroke:none"
         transform="matrix(0.13333333,0,0,-0.13333333,625.77169,563.30465)"
         clip-path="url(#clipPath121)" /><path
         id="path122"
         d="m 868.066,1874.31 c -0.578,0 -1.152,0 -1.726,0 -32.516,0.26 -65.656,7.53 -95.848,19.5 -16.558,6.57 -34.539,15.44 -48.609,27.82 v 69.85 h 200.418 v -111.75 c -17.817,-3.15 -36.164,-5.42 -54.235,-5.42"
         style="fill:#e4a187;fill-opacity:1;fill-rule:nonzero;stroke:none"
         transform="matrix(0.13333333,0,0,-0.13333333,625.77169,563.30465)"
         clip-path="url(#clipPath123)" /><path
         id="path124"
         d="m 1031.33,2241.54 c 0.64,4.9 8.78,12.9 12.35,15.6 7.94,6.01 15.94,-0.17 18.26,-8 2.07,-6.99 2.27,-14.87 2.77,-22.14 1.21,-17.71 -1.41,-35.09 -9.21,-51.08 -5.19,-10.65 -13.35,-19.4 -23,-26.02 0,0 -10.4,-5.29 -12.47,6.88 l 11.3,84.76"
         style="fill:#f9b095;fill-opacity:1;fill-rule:nonzero;stroke:none"
         transform="matrix(0.13333333,0,0,-0.13333333,625.77169,563.30465)"
         clip-path="url(#clipPath125)" /><path
         id="path126"
         d="m 1029.66,2230.91 c 0.46,3.51 6.3,9.22 8.84,11.16 5.68,4.3 11.42,-0.12 13.08,-5.72 1.48,-5.02 1.62,-10.64 1.97,-15.85 0.87,-12.67 -1,-25.11 -6.58,-36.54 -3.73,-7.63 -9.56,-13.9 -16.46,-18.64 0,0 -7.45,-3.78 -8.92,4.93 l 8.07,60.66"
         style="fill:#dd9c83;fill-opacity:1;fill-rule:nonzero;stroke:none"
         transform="matrix(0.13333333,0,0,-0.13333333,625.77169,563.30465)"
         clip-path="url(#clipPath127)" /><path
         id="path128"
         d="m 607.754,2241.54 c -0.66,4.9 -8.801,12.9 -12.359,15.6 -7.938,6.01 -15.942,-0.17 -18.266,-8 -2.07,-6.99 -2.262,-14.87 -2.766,-22.14 -1.211,-17.71 1.414,-35.09 9.207,-51.08 5.2,-10.65 13.348,-19.4 23.012,-26.02 0,0 10.395,-5.29 12.473,6.88 l -11.301,84.76"
         style="fill:#f9b095;fill-opacity:1;fill-rule:nonzero;stroke:none"
         transform="matrix(0.13333333,0,0,-0.13333333,625.77169,563.30465)"
         clip-path="url(#clipPath129)" /><path
         id="path130"
         d="m 609.41,2230.91 c -0.465,3.51 -6.289,9.22 -8.84,11.16 -5.687,4.3 -11.41,-0.12 -13.074,-5.72 -1.48,-5.02 -1.617,-10.64 -1.969,-15.85 -0.875,-12.67 1.004,-25.11 6.578,-36.54 3.719,-7.63 9.555,-13.9 16.465,-18.64 0,0 7.45,-3.78 8.93,4.93 l -8.09,60.66"
         style="fill:#dd9c83;fill-opacity:1;fill-rule:nonzero;stroke:none"
         transform="matrix(0.13333333,0,0,-0.13333333,625.77169,563.30465)"
         clip-path="url(#clipPath131)" /><path
         id="path132"
         d="m 1037.67,2225.59 c 0,-55.88 -9.42,-112.39 -35.16,-160.75 -22.514,-42.29 -56.283,-76.16 -92.53,-103.21 -29.398,-21.94 -60.937,-47.51 -98.156,-44.38 -38.797,3.25 -69.011,37.1 -97.355,63.52 -39.864,37.15 -71.324,83.29 -90.715,137.59 -11.934,33.44 -17.43,71.21 -17.43,107.23 0,180.67 96.551,294.3 215.672,294.3 119.117,0 215.674,-113.63 215.674,-294.3"
         style="fill:#f9b095;fill-opacity:1;fill-rule:nonzero;stroke:none"
         transform="matrix(0.13333333,0,0,-0.13333333,625.77169,563.30465)"
         clip-path="url(#clipPath133)" /><path
         id="path134"
         d="M 1172.06,1795.38 922.301,1860.7 H 721.883 l -249.77,-65.32 c 0,0 -115.746,-42.87 -128.601,-178.62 h 478.578 478.58 c -12.86,135.75 -128.61,178.62 -128.61,178.62"
         style="fill:#f9b095;fill-opacity:1;fill-rule:nonzero;stroke:none"
         transform="matrix(0.13333333,0,0,-0.13333333,625.77169,563.30465)"
         clip-path="url(#clipPath135)" /><path
         id="path136"
         d="M 1172.06,1795.38 922.301,1860.7 H 721.883 l -249.77,-65.32 c 0,0 -115.746,-42.87 -128.601,-178.62 h 478.578 478.58 c -12.86,135.75 -128.61,178.62 -128.61,178.62"
         style="fill:#ffffff;fill-opacity:1;fill-rule:nonzero;stroke:none"
         transform="matrix(0.13333333,0,0,-0.13333333,625.77169,563.30465)"
         clip-path="url(#clipPath137)" /><path
         id="path138"
         d="M 1172.06,1795.38 987.223,1843.72 822.09,1616.76 658.738,1844.19 472.113,1795.38 c 0,0 -115.746,-42.87 -128.601,-178.62 h 478.578 478.58 c -12.86,135.75 -128.61,178.62 -128.61,178.62"
         style="fill:#233d3d;fill-opacity:1;fill-rule:nonzero;stroke:none"
         transform="matrix(0.13333333,0,0,-0.13333333,625.77169,563.30465)"
         clip-path="url(#clipPath139)" /><path
         id="path140"
         d="m 800.176,1730.47 -46.02,-113.71 h 130.75 l -44.847,113.71 h -39.883"
         style="fill:#ed3947;fill-opacity:1;fill-rule:nonzero;stroke:none"
         transform="matrix(0.13333333,0,0,-0.13333333,625.77169,563.30465)"
         clip-path="url(#clipPath141)" /><path
         id="path142"
         d="m 819.078,1858.47 -58.586,-78.58 40.719,-49.73 19.945,0.32 19.93,0.33 39.086,51.02 -61.094,76.64"
         style="fill:#ed3947;fill-opacity:1;fill-rule:nonzero;stroke:none"
         transform="matrix(0.13333333,0,0,-0.13333333,625.77169,563.30465)"
         clip-path="url(#clipPath143)" /><path
         id="path144"
         d="m 760.492,1779.89 56.156,75.33 -0.003,-0.01 -56.153,-75.32"
         style="fill:#d3d2d2;fill-opacity:1;fill-rule:nonzero;stroke:none"
         transform="matrix(0.13333333,0,0,-0.13333333,625.77169,563.30465)"
         clip-path="url(#clipPath145)" /><path
         id="path146"
         d="m 801.211,1730.16 -40.719,49.73 56.153,75.32 c -6.582,-17.35 -18.415,-32.6 -22.817,-50.93 -4.531,-18.81 4.473,-37.31 24.031,-41.61 1.989,-0.43 3.918,-0.64 5.793,-0.64 15.977,0 27.848,14.9 34.567,28.15 2.015,4.02 3.801,8.16 5.418,12.39 l 16.535,-20.74 -39.086,-51.02 -39.875,-0.65"
         style="fill:#c42e39;fill-opacity:1;fill-rule:nonzero;stroke:none"
         transform="matrix(0.13333333,0,0,-0.13333333,625.77169,563.30465)"
         clip-path="url(#clipPath147)" /><path
         id="path148"
         d="m 822.09,1616.76 -163.352,227.43 -130.597,-34.16 166.898,-117.51 -42.867,-18.9 77.16,-56.86 h 92.758"
         style="fill:#1a2c2d;fill-opacity:1;fill-rule:nonzero;stroke:none"
         transform="matrix(0.13333333,0,0,-0.13333333,625.77169,563.30465)"
         clip-path="url(#clipPath149)" /><path
         id="path150"
         d="m 822.09,1616.45 163.344,227.42 130.606,-34.15 -166.903,-117.51 42.875,-18.91 -77.164,-56.85 H 822.09"
         style="fill:#1a2c2d;fill-opacity:1;fill-rule:nonzero;stroke:none"
         transform="matrix(0.13333333,0,0,-0.13333333,625.77169,563.30465)"
         clip-path="url(#clipPath151)" /><path
         id="path152"
         d="m 623.59,1855.91 97.953,45.95 99.867,-41.7 99.863,41.7 104.667,-45.95 -147.991,-99.08 -56.539,81 -60.918,-81 -136.902,99.08"
         style="fill:#e5e4e4;fill-opacity:1;fill-rule:nonzero;stroke:none"
         transform="matrix(0.13333333,0,0,-0.13333333,625.77169,563.30465)"
         clip-path="url(#clipPath153)" /><path
         id="path154"
         d="m 948.344,1994.29 c 0,0 54.146,51.21 66.106,96.41 0,0 -63.887,-57.65 -86.153,-51.52 l 20.047,-44.89"
         style="fill:#190d07;fill-opacity:1;fill-rule:nonzero;stroke:none"
         transform="matrix(0.13333333,0,0,-0.13333333,625.77169,563.30465)"
         clip-path="url(#clipPath155)" /><path
         id="path156"
         d="m 710.875,1978.97 c 0,0 -62.77,53.78 -80.023,121.17 0,0 71.609,-82.67 93.878,-76.52 l -13.855,-44.65"
         style="fill:#190d07;fill-opacity:1;fill-rule:nonzero;stroke:none"
         transform="matrix(0.13333333,0,0,-0.13333333,625.77169,563.30465)"
         clip-path="url(#clipPath157)" /><path
         id="path158"
         d="m 860.25,2067.64 c 35.453,-0.48 54.773,-12.73 54.773,-12.73 31.137,-14.67 39.082,-54.61 39.082,-54.61 0,0 -21.417,-23.7 -47.566,-40.47 -59.094,-48.98 -86.203,-42.79 -86.203,-42.79 -33.617,-0.05 -57.211,20.98 -57.211,20.98 l -55.297,43.33 c -6.875,49.24 36.078,73.56 36.078,73.56 25.766,12.52 30.418,10.85 30.418,10.85 0,0 38.602,4.51 48.043,-10.82 0,0 9.707,12.7 35.957,12.7"
         style="fill:#1e100a;fill-opacity:1;fill-rule:nonzero;stroke:none"
         transform="matrix(0.13333333,0,0,-0.13333333,625.77169,563.30465)"
         clip-path="url(#clipPath159)" /><path
         id="path160"
         d="m 827.25,2027.12 c 0,0 -24.262,12.13 -59.57,-0.91 0,0 53.593,-56.82 114.433,-0.74 0,0 -32.601,15.22 -54.863,1.65"
         style="fill:#f9b095;fill-opacity:1;fill-rule:nonzero;stroke:none"
         transform="matrix(0.13333333,0,0,-0.13333333,625.77169,563.30465)"
         clip-path="url(#clipPath161)" /></g></g></svg>
