<?xml version="1.0" encoding="UTF-8" standalone="no"?>
<!-- Created with Inkscape (http://www.inkscape.org/) -->

<svg
   width="36.923489mm"
   height="36.923489mm"
   viewBox="0 0 36.923488 36.923488"
   version="1.1"
   id="svg1"
   xml:space="preserve"
   xmlns:inkscape="http://www.inkscape.org/namespaces/inkscape"
   xmlns:sodipodi="http://sodipodi.sourceforge.net/DTD/sodipodi-0.dtd"
   xmlns="http://www.w3.org/2000/svg"
   xmlns:svg="http://www.w3.org/2000/svg"><sodipodi:namedview
     id="namedview1"
     pagecolor="#ffffff"
     bordercolor="#000000"
     borderopacity="0.25"
     inkscape:showpageshadow="2"
     inkscape:pageopacity="0.0"
     inkscape:pagecheckerboard="0"
     inkscape:deskcolor="#d1d1d1"
     inkscape:document-units="mm"><inkscape:page
       x="-1.510963e-06"
       y="-3.1304828e-07"
       width="36.923489"
       height="36.923489"
       id="page1"
       margin="0"
       bleed="0" /></sodipodi:namedview><defs
     id="defs1"><clipPath
       clipPathUnits="userSpaceOnUse"
       id="clipPath191"><path
         d="m 3957.62,2125.98 c 0,-289.02 -234.3,-523.33 -523.32,-523.33 -289.03,0 -523.33,234.31 -523.33,523.33 0,289.02 234.3,523.32 523.33,523.32 289.02,0 523.32,-234.3 523.32,-523.32"
         transform="translate(0,-2.5000001e-5)"
         id="path191" /></clipPath><clipPath
       clipPathUnits="userSpaceOnUse"
       id="clipPath193"><path
         d="m 3957.62,2125.98 c 0,-289.02 -234.3,-523.33 -523.32,-523.33 -289.03,0 -523.33,234.31 -523.33,523.33 0,289.02 234.3,523.32 523.33,523.32 289.02,0 523.32,-234.3 523.32,-523.32"
         transform="translate(0,-2.5000001e-5)"
         id="path193" /></clipPath><clipPath
       clipPathUnits="userSpaceOnUse"
       id="clipPath195"><path
         d="m 3957.62,2125.98 c 0,-289.02 -234.3,-523.33 -523.32,-523.33 -289.03,0 -523.33,234.31 -523.33,523.33 0,289.02 234.3,523.32 523.33,523.32 289.02,0 523.32,-234.3 523.32,-523.32"
         transform="translate(0,-2.5000001e-5)"
         id="path195" /></clipPath><clipPath
       clipPathUnits="userSpaceOnUse"
       id="clipPath197"><path
         d="m 3957.62,2125.98 c 0,-289.02 -234.3,-523.33 -523.32,-523.33 -289.03,0 -523.33,234.31 -523.33,523.33 0,289.02 234.3,523.32 523.33,523.32 289.02,0 523.32,-234.3 523.32,-523.32"
         transform="translate(0,-2.5000001e-5)"
         id="path197" /></clipPath><clipPath
       clipPathUnits="userSpaceOnUse"
       id="clipPath199"><path
         d="m 3957.62,2125.98 c 0,-289.02 -234.3,-523.33 -523.32,-523.33 -289.03,0 -523.33,234.31 -523.33,523.33 0,289.02 234.3,523.32 523.33,523.32 289.02,0 523.32,-234.3 523.32,-523.32"
         transform="translate(0,-2.5000001e-5)"
         id="path199" /></clipPath><clipPath
       clipPathUnits="userSpaceOnUse"
       id="clipPath201"><path
         d="m 3957.62,2125.98 c 0,-289.02 -234.3,-523.33 -523.32,-523.33 -289.03,0 -523.33,234.31 -523.33,523.33 0,289.02 234.3,523.32 523.33,523.32 289.02,0 523.32,-234.3 523.32,-523.32"
         transform="translate(0,-2.5000001e-5)"
         id="path201" /></clipPath><clipPath
       clipPathUnits="userSpaceOnUse"
       id="clipPath203"><path
         d="m 3957.62,2125.98 c 0,-289.02 -234.3,-523.33 -523.32,-523.33 -289.03,0 -523.33,234.31 -523.33,523.33 0,289.02 234.3,523.32 523.33,523.32 289.02,0 523.32,-234.3 523.32,-523.32"
         transform="translate(0,-2.5000001e-5)"
         id="path203" /></clipPath><clipPath
       clipPathUnits="userSpaceOnUse"
       id="clipPath205"><path
         d="m 3957.62,2125.98 c 0,-289.02 -234.3,-523.33 -523.32,-523.33 -289.03,0 -523.33,234.31 -523.33,523.33 0,289.02 234.3,523.32 523.33,523.32 289.02,0 523.32,-234.3 523.32,-523.32"
         transform="translate(0,-2.5000001e-5)"
         id="path205" /></clipPath><clipPath
       clipPathUnits="userSpaceOnUse"
       id="clipPath207"><path
         d="m 3957.62,2125.98 c 0,-289.02 -234.3,-523.33 -523.32,-523.33 -289.03,0 -523.33,234.31 -523.33,523.33 0,289.02 234.3,523.32 523.33,523.32 289.02,0 523.32,-234.3 523.32,-523.32"
         transform="translate(0,-2.5000001e-5)"
         id="path207" /></clipPath><clipPath
       clipPathUnits="userSpaceOnUse"
       id="clipPath209"><path
         d="m 3957.62,2125.98 c 0,-289.02 -234.3,-523.33 -523.32,-523.33 -289.03,0 -523.33,234.31 -523.33,523.33 0,289.02 234.3,523.32 523.33,523.32 289.02,0 523.32,-234.3 523.32,-523.32"
         transform="translate(0,-2.5000001e-5)"
         id="path209" /></clipPath><clipPath
       clipPathUnits="userSpaceOnUse"
       id="clipPath211"><path
         d="m 3957.62,2125.98 c 0,-289.02 -234.3,-523.33 -523.32,-523.33 -289.03,0 -523.33,234.31 -523.33,523.33 0,289.02 234.3,523.32 523.33,523.32 289.02,0 523.32,-234.3 523.32,-523.32"
         transform="translate(0,-2.5000001e-5)"
         id="path211" /></clipPath><clipPath
       clipPathUnits="userSpaceOnUse"
       id="clipPath213"><path
         d="m 3957.62,2125.98 c 0,-289.02 -234.3,-523.33 -523.32,-523.33 -289.03,0 -523.33,234.31 -523.33,523.33 0,289.02 234.3,523.32 523.33,523.32 289.02,0 523.32,-234.3 523.32,-523.32"
         transform="translate(0,-2.5000001e-5)"
         id="path213" /></clipPath></defs><g
     id="g1"
     inkscape:groupmode="layer"
     inkscape:label="1"
     transform="matrix(0.26458333,0,0,0.26458334,-268.2613,-55.579615)"><path
       id="path2"
       d="M 625.77221,563.30569 H 1192.7002 V -3.6236292 H 625.77221 Z"
       style="fill:#ffffff;fill-opacity:1;fill-rule:nonzero;stroke:none;stroke-width:0.133333" /><g
       id="g29"><path
         id="path8"
         d="m 1153.4543,279.84066 c 0,38.536 -31.24,69.77733 -69.776,69.77733 -38.5373,0 -69.7773,-31.24133 -69.7773,-69.77733 0,-38.536 31.24,-69.776 69.7773,-69.776 38.536,0 69.776,31.24 69.776,69.776"
         style="fill:#4bb1dd;fill-opacity:1;fill-rule:nonzero;stroke:none;stroke-width:0.133333" /><path
         id="path190"
         d="m 3274.25,2155.13 c -2.31,-3.23 -7.72,-275.2 43.22,-330.55 l 286.3,1.78 c 0,0 76.9,209.25 22.88,330.98 l -354.11,-2.22 1.71,0.01"
         style="fill:#231f20;fill-opacity:1;fill-rule:nonzero;stroke:none"
         transform="matrix(0.13333333,0,0,-0.13333333,625.77169,563.30465)"
         clip-path="url(#clipPath191)" /><path
         id="path192"
         d="m 3551.26,1849.48 -200.41,-1.25 -0.84,135.03 200.41,1.25 0.84,-135.03"
         style="fill:#f9b095;fill-opacity:1;fill-rule:nonzero;stroke:none"
         transform="matrix(0.13333333,0,0,-0.13333333,625.77169,563.30465)"
         clip-path="url(#clipPath193)" /><path
         id="path194"
         d="m 3350.45,1913.42 c 0,0 0,0 -0.01,0 l -0.43,69.84 0.44,-69.84"
         style="fill:#231f20;fill-opacity:1;fill-rule:nonzero;stroke:none"
         transform="matrix(0.13333333,0,0,-0.13333333,625.77169,563.30465)"
         clip-path="url(#clipPath195)" /><path
         id="path196"
         d="m 3495.58,1867 c -0.13,0 -0.26,0 -0.39,0 -32.51,0.06 -65.69,7.12 -95.96,18.91 -16.61,6.45 -34.63,15.21 -48.78,27.51 l -0.44,69.84 200.41,1.25 0.7,-111.74 c -18.24,-3.34 -37.02,-5.77 -55.54,-5.77"
         style="fill:#e4a187;fill-opacity:1;fill-rule:nonzero;stroke:none"
         transform="matrix(0.13333333,0,0,-0.13333333,625.77169,563.30465)"
         clip-path="url(#clipPath197)" /><path
         id="path198"
         d="m 3672.25,2223.21 c 0.34,-56.58 -9.06,-113.85 -35.44,-162.97 -23.06,-42.96 -57.84,-77.45 -95.23,-105.08 -30.33,-22.4 -62.85,-48.48 -101.44,-45.56 -40.22,3.04 -71.76,37.12 -101.3,63.67 -41.54,37.35 -74.44,83.87 -94.87,138.69 -12.58,33.78 -18.52,71.99 -18.75,108.46 -1.14,182.89 98.22,298.56 221.66,299.32 123.44,0.77 224.23,-113.64 225.37,-296.53"
         style="fill:#f9b095;fill-opacity:1;fill-rule:nonzero;stroke:none"
         transform="matrix(0.13333333,0,0,-0.13333333,625.77169,563.30465)"
         clip-path="url(#clipPath199)" /><path
         id="path200"
         d="m 3756.35,1789.69 -218.01,63.97 -87.31,-0.55 -87.3,-0.54 -217.21,-66.68 c 0,0 -100.56,-43.5 -110.92,-179.31 l 416.95,2.6 416.97,2.59 c -12.05,135.68 -113.17,177.92 -113.17,177.92"
         style="fill:#f9b095;fill-opacity:1;fill-rule:nonzero;stroke:none"
         transform="matrix(0.13333333,0,0,-0.13333333,625.77169,563.30465)"
         clip-path="url(#clipPath201)" /><path
         id="path202"
         d="m 3756.35,1789.69 -120.56,35.38 -183.43,-185.6 -186.26,183.13 -119.58,-36.71 c 0,0 -102.9,-44.19 -110.92,-179.31 l 609.67,3.8 228.53,1.42 c -21.18,140.68 -117.45,177.89 -117.45,177.89"
         style="fill:#183651;fill-opacity:1;fill-rule:nonzero;stroke:none"
         transform="matrix(0.13333333,0,0,-0.13333333,625.77169,563.30465)"
         clip-path="url(#clipPath203)" /><path
         id="path204"
         d="m 3237.73,2328.8 c 52.81,-51.11 220.91,-39.05 200.31,-38.09 l 19.84,103.17 13.13,-104.69 c 0,0 31.6,-12.23 103.16,-0.32 l 17.18,71.17 12.73,-65.74 c 0,0 48.97,13.32 60.09,37.3 0,0 -9.72,180.86 -197.1,198.16 0,0 -188.27,-3.91 -229.34,-200.96"
         style="fill:#231f20;fill-opacity:1;fill-rule:nonzero;stroke:none"
         transform="matrix(0.13333333,0,0,-0.13333333,625.77169,563.30465)"
         clip-path="url(#clipPath205)" /><path
         id="path206"
         d="m 3602.95,2469.14 c 0,0 82.78,-526.21 -25.73,-669.66 0,0 111.26,44.26 125.14,134.32 0,0 87.84,384.66 -99.41,535.34"
         style="fill:#231f20;fill-opacity:1;fill-rule:nonzero;stroke:none"
         transform="matrix(0.13333333,0,0,-0.13333333,625.77169,563.30465)"
         clip-path="url(#clipPath207)" /><path
         id="path208"
         d="m 3326.69,2471.31 c 0,0 -88.93,-531.17 21.36,-673.27 0,0 -111.81,42.88 -126.8,132.76 0,0 -79.91,387.51 105.44,540.51"
         style="fill:#231f20;fill-opacity:1;fill-rule:nonzero;stroke:none"
         transform="matrix(0.13333333,0,0,-0.13333333,625.77169,563.30465)"
         clip-path="url(#clipPath209)" /><path
         id="path210"
         d="m 3261.75,1821.21 192.39,-195.87 207.06,192.27 -61.22,23.84 -148.69,-29.86 -119.98,40.78 -69.56,-31.16"
         style="fill:#e5e4e4;fill-opacity:1;fill-rule:nonzero;stroke:none"
         transform="matrix(0.13333333,0,0,-0.13333333,625.77169,563.30465)"
         clip-path="url(#clipPath211)" /><path
         id="path212"
         d="m 3261.75,1821.21 92.83,41.58 95.12,-36.63 94.67,37.82 99.69,-40.39 -140.09,-89.27 -54.15,71.92 -57.45,-72.61 -130.62,87.58"
         style="fill:#cfcece;fill-opacity:1;fill-rule:nonzero;stroke:none"
         transform="matrix(0.13333333,0,0,-0.13333333,625.77169,563.30465)"
         clip-path="url(#clipPath213)" /></g></g></svg>
