<?xml version="1.0" encoding="UTF-8" standalone="no"?>
<!-- Created with Inkscape (http://www.inkscape.org/) -->

<svg
   width="36.923389mm"
   height="36.923481mm"
   viewBox="0 0 36.923388 36.92348"
   version="1.1"
   id="svg1"
   xml:space="preserve"
   xmlns:inkscape="http://www.inkscape.org/namespaces/inkscape"
   xmlns:sodipodi="http://sodipodi.sourceforge.net/DTD/sodipodi-0.dtd"
   xmlns="http://www.w3.org/2000/svg"
   xmlns:svg="http://www.w3.org/2000/svg"><sodipodi:namedview
     id="namedview1"
     pagecolor="#ffffff"
     bordercolor="#000000"
     borderopacity="0.25"
     inkscape:showpageshadow="2"
     inkscape:pageopacity="0.0"
     inkscape:pagecheckerboard="0"
     inkscape:deskcolor="#d1d1d1"
     inkscape:document-units="mm"><inkscape:page
       x="-5.4253369e-06"
       y="-7.7811711e-07"
       width="36.923389"
       height="36.923481"
       id="page1"
       margin="0"
       bleed="0" /></sodipodi:namedview><defs
     id="defs1"><clipPath
       clipPathUnits="userSpaceOnUse"
       id="clipPath215"><path
         d="M 1341,817.672 C 1341,528.648 1106.7,294.34 817.676,294.34 c -289.024,0 -523.324,234.308 -523.324,523.332 0,289.018 234.3,523.318 523.324,523.318 289.024,0 523.324,-234.3 523.324,-523.318"
         transform="translate(0,-2.5000001e-5)"
         id="path215" /></clipPath><clipPath
       clipPathUnits="userSpaceOnUse"
       id="clipPath217"><path
         d="M 1341,817.672 C 1341,528.648 1106.7,294.34 817.676,294.34 c -289.024,0 -523.324,234.308 -523.324,523.332 0,289.018 234.3,523.318 523.324,523.318 289.024,0 523.324,-234.3 523.324,-523.318"
         transform="translate(0,-2.5000001e-5)"
         id="path217" /></clipPath><clipPath
       clipPathUnits="userSpaceOnUse"
       id="clipPath219"><path
         d="M 1341,817.672 C 1341,528.648 1106.7,294.34 817.676,294.34 c -289.024,0 -523.324,234.308 -523.324,523.332 0,289.018 234.3,523.318 523.324,523.318 289.024,0 523.324,-234.3 523.324,-523.318"
         transform="translate(0,-2.5000001e-5)"
         id="path219" /></clipPath><clipPath
       clipPathUnits="userSpaceOnUse"
       id="clipPath221"><path
         d="M 1341,817.672 C 1341,528.648 1106.7,294.34 817.676,294.34 c -289.024,0 -523.324,234.308 -523.324,523.332 0,289.018 234.3,523.318 523.324,523.318 289.024,0 523.324,-234.3 523.324,-523.318"
         transform="translate(0,-2.5000001e-5)"
         id="path221" /></clipPath><clipPath
       clipPathUnits="userSpaceOnUse"
       id="clipPath223"><path
         d="M 1341,817.672 C 1341,528.648 1106.7,294.34 817.676,294.34 c -289.024,0 -523.324,234.308 -523.324,523.332 0,289.018 234.3,523.318 523.324,523.318 289.024,0 523.324,-234.3 523.324,-523.318"
         transform="translate(0,-2.5000001e-5)"
         id="path223" /></clipPath><clipPath
       clipPathUnits="userSpaceOnUse"
       id="clipPath225"><path
         d="M 1341,817.672 C 1341,528.648 1106.7,294.34 817.676,294.34 c -289.024,0 -523.324,234.308 -523.324,523.332 0,289.018 234.3,523.318 523.324,523.318 289.024,0 523.324,-234.3 523.324,-523.318"
         transform="translate(0,-2.5000001e-5)"
         id="path225" /></clipPath><clipPath
       clipPathUnits="userSpaceOnUse"
       id="clipPath227"><path
         d="M 1341,817.672 C 1341,528.648 1106.7,294.34 817.676,294.34 c -289.024,0 -523.324,234.308 -523.324,523.332 0,289.018 234.3,523.318 523.324,523.318 289.024,0 523.324,-234.3 523.324,-523.318"
         transform="translate(0,-2.5000001e-5)"
         id="path227" /></clipPath><clipPath
       clipPathUnits="userSpaceOnUse"
       id="clipPath229"><path
         d="M 1341,817.672 C 1341,528.648 1106.7,294.34 817.676,294.34 c -289.024,0 -523.324,234.308 -523.324,523.332 0,289.018 234.3,523.318 523.324,523.318 289.024,0 523.324,-234.3 523.324,-523.318"
         transform="translate(0,-2.5000001e-5)"
         id="path229" /></clipPath><clipPath
       clipPathUnits="userSpaceOnUse"
       id="clipPath231"><path
         d="M 1341,817.672 C 1341,528.648 1106.7,294.34 817.676,294.34 c -289.024,0 -523.324,234.308 -523.324,523.332 0,289.018 234.3,523.318 523.324,523.318 289.024,0 523.324,-234.3 523.324,-523.318"
         transform="translate(0,-2.5000001e-5)"
         id="path231" /></clipPath><clipPath
       clipPathUnits="userSpaceOnUse"
       id="clipPath233"><path
         d="M 1341,817.672 C 1341,528.648 1106.7,294.34 817.676,294.34 c -289.024,0 -523.324,234.308 -523.324,523.332 0,289.018 234.3,523.318 523.324,523.318 289.024,0 523.324,-234.3 523.324,-523.318"
         transform="translate(0,-2.5000001e-5)"
         id="path233" /></clipPath><clipPath
       clipPathUnits="userSpaceOnUse"
       id="clipPath235"><path
         d="M 1341,817.672 C 1341,528.648 1106.7,294.34 817.676,294.34 c -289.024,0 -523.324,234.308 -523.324,523.332 0,289.018 234.3,523.318 523.324,523.318 289.024,0 523.324,-234.3 523.324,-523.318"
         transform="translate(0,-2.5000001e-5)"
         id="path235" /></clipPath><clipPath
       clipPathUnits="userSpaceOnUse"
       id="clipPath237"><path
         d="M 1341,817.672 C 1341,528.648 1106.7,294.34 817.676,294.34 c -289.024,0 -523.324,234.308 -523.324,523.332 0,289.018 234.3,523.318 523.324,523.318 289.024,0 523.324,-234.3 523.324,-523.318"
         transform="translate(0,-2.5000001e-5)"
         id="path237" /></clipPath><clipPath
       clipPathUnits="userSpaceOnUse"
       id="clipPath239"><path
         d="M 1341,817.672 C 1341,528.648 1106.7,294.34 817.676,294.34 c -289.024,0 -523.324,234.308 -523.324,523.332 0,289.018 234.3,523.318 523.324,523.318 289.024,0 523.324,-234.3 523.324,-523.318"
         transform="translate(0,-2.5000001e-5)"
         id="path239" /></clipPath><clipPath
       clipPathUnits="userSpaceOnUse"
       id="clipPath241"><path
         d="M 1341,817.672 C 1341,528.648 1106.7,294.34 817.676,294.34 c -289.024,0 -523.324,234.308 -523.324,523.332 0,289.018 234.3,523.318 523.324,523.318 289.024,0 523.324,-234.3 523.324,-523.318"
         transform="translate(0,-2.5000001e-5)"
         id="path241" /></clipPath><clipPath
       clipPathUnits="userSpaceOnUse"
       id="clipPath243"><path
         d="M 1341,817.672 C 1341,528.648 1106.7,294.34 817.676,294.34 c -289.024,0 -523.324,234.308 -523.324,523.332 0,289.018 234.3,523.318 523.324,523.318 289.024,0 523.324,-234.3 523.324,-523.318"
         transform="translate(0,-2.5000001e-5)"
         id="path243" /></clipPath><clipPath
       clipPathUnits="userSpaceOnUse"
       id="clipPath245"><path
         d="M 1341,817.672 C 1341,528.648 1106.7,294.34 817.676,294.34 c -289.024,0 -523.324,234.308 -523.324,523.332 0,289.018 234.3,523.318 523.324,523.318 289.024,0 523.324,-234.3 523.324,-523.318"
         transform="translate(0,-2.5000001e-5)"
         id="path245" /></clipPath><clipPath
       clipPathUnits="userSpaceOnUse"
       id="clipPath247"><path
         d="M 1341,817.672 C 1341,528.648 1106.7,294.34 817.676,294.34 c -289.024,0 -523.324,234.308 -523.324,523.332 0,289.018 234.3,523.318 523.324,523.318 289.024,0 523.324,-234.3 523.324,-523.318"
         transform="translate(0,-2.5000001e-5)"
         id="path247" /></clipPath><clipPath
       clipPathUnits="userSpaceOnUse"
       id="clipPath249"><path
         d="M 1341,817.672 C 1341,528.648 1106.7,294.34 817.676,294.34 c -289.024,0 -523.324,234.308 -523.324,523.332 0,289.018 234.3,523.318 523.324,523.318 289.024,0 523.324,-234.3 523.324,-523.318"
         transform="translate(0,-2.5000001e-5)"
         id="path249" /></clipPath></defs><g
     id="g1"
     inkscape:groupmode="layer"
     inkscape:label="1"
     transform="matrix(0.26458333,0,0,0.26458334,-175.95285,-101.73389)"><path
       id="path2"
       d="M 625.77221,563.30569 H 1192.7002 V -3.6236292 H 625.77221 Z"
       style="fill:#ffffff;fill-opacity:1;fill-rule:nonzero;stroke:none;stroke-width:0.133333" /><g
       id="g34"><path
         id="path6-3"
         d="m 804.57169,454.28172 c 0,38.53653 -31.24,69.7776 -69.77654,69.7776 -38.53653,0 -69.77653,-31.24107 -69.77653,-69.7776 0,-38.53573 31.24,-69.77573 69.77653,-69.77573 38.53654,0 69.77654,31.24 69.77654,69.77573"
         style="fill:#724230;fill-opacity:1;fill-rule:nonzero;stroke:none;stroke-width:0.133333" /><path
         id="path214"
         d="M 714.91,538.191 H 915.328 V 673.218 H 714.91 Z"
         style="fill:#f9b095;fill-opacity:1;fill-rule:nonzero;stroke:none"
         transform="matrix(0.13333333,0,0,-0.13333333,625.77169,563.30465)"
         clip-path="url(#clipPath215)" /><path
         id="path216"
         d="m 861.094,556.051 c -0.578,0 -1.153,0.008 -1.727,0.008 -32.515,0.261 -65.656,7.531 -95.847,19.492 -16.559,6.578 -34.54,15.441 -48.61,27.828 v 69.84 H 915.328 V 561.48 c -17.816,-3.152 -36.164,-5.429 -54.234,-5.429"
         style="fill:#e4a187;fill-opacity:1;fill-rule:nonzero;stroke:none"
         transform="matrix(0.13333333,0,0,-0.13333333,625.77169,563.30465)"
         clip-path="url(#clipPath217)" /><path
         id="path218"
         d="m 1036.29,923.289 c 0.69,4.902 9.3,12.902 13.06,15.59 8.38,6.012 16.85,-0.168 19.29,-7.988 2.19,-7 2.4,-14.879 2.92,-22.141 1.28,-17.711 -1.48,-35.102 -9.72,-51.078 -5.49,-10.66 -14.1,-19.41 -24.31,-26.031 0,0 -10.98,-5.289 -13.16,6.89 l 11.92,84.758"
         style="fill:#f9b095;fill-opacity:1;fill-rule:nonzero;stroke:none"
         transform="matrix(0.13333333,0,0,-0.13333333,625.77169,563.30465)"
         clip-path="url(#clipPath219)" /><path
         id="path220"
         d="m 1034.54,912.648 c 0.49,3.512 6.65,9.243 9.34,11.161 6,4.3 12.06,-0.118 13.81,-5.719 1.56,-5.008 1.71,-10.641 2.09,-15.848 0.92,-12.672 -1.06,-25.101 -6.96,-36.543 -3.92,-7.629 -10.09,-13.89 -17.39,-18.629 0,0 -7.86,-3.789 -9.42,4.918 l 8.53,60.66"
         style="fill:#dd9c83;fill-opacity:1;fill-rule:nonzero;stroke:none"
         transform="matrix(0.13333333,0,0,-0.13333333,625.77169,563.30465)"
         clip-path="url(#clipPath221)" /><path
         id="path222"
         d="m 588.844,923.289 c -0.684,4.902 -9.293,12.902 -13.059,15.59 -8.383,6.012 -16.84,-0.168 -19.293,-7.988 -2.183,-7 -2.39,-14.879 -2.914,-22.141 -1.289,-17.711 1.485,-35.102 9.719,-51.078 5.496,-10.66 14.101,-19.41 24.301,-26.031 0,0 10.992,-5.289 13.172,6.89 l -11.926,84.758"
         style="fill:#f9b095;fill-opacity:1;fill-rule:nonzero;stroke:none"
         transform="matrix(0.13333333,0,0,-0.13333333,625.77169,563.30465)"
         clip-path="url(#clipPath223)" /><path
         id="path224"
         d="m 590.598,912.648 c -0.496,3.512 -6.649,9.243 -9.344,11.161 -6,4.3 -12.055,-0.118 -13.805,-5.719 -1.566,-5.008 -1.711,-10.641 -2.097,-15.848 -0.914,-12.672 1.074,-25.101 6.968,-36.543 3.926,-7.629 10.086,-13.89 17.383,-18.629 0,0 7.863,-3.789 9.43,4.918 l -8.535,60.66"
         style="fill:#dd9c83;fill-opacity:1;fill-rule:nonzero;stroke:none"
         transform="matrix(0.13333333,0,0,-0.13333333,625.77169,563.30465)"
         clip-path="url(#clipPath225)" /><path
         id="path226"
         d="m 1043,907.34 c 0,-55.879 -9.95,-112.399 -37.15,-160.758 C 982.07,704.289 946.402,670.43 908.113,643.379 877.055,621.441 843.734,595.871 804.43,599 c -40.985,3.25 -72.91,37.102 -102.852,63.512 -42.121,37.16 -75.351,83.297 -95.824,137.59 -12.625,33.449 -18.418,71.218 -18.418,107.238 0,180.66 102.004,294.31 227.832,294.31 C 940.996,1201.65 1043,1088 1043,907.34"
         style="fill:#f9b095;fill-opacity:1;fill-rule:nonzero;stroke:none"
         transform="matrix(0.13333333,0,0,-0.13333333,625.77169,563.30465)"
         clip-path="url(#clipPath227)" /><path
         id="path228"
         d="m 1165.09,477.129 -249.762,65.32 H 714.91 l -249.758,-65.32 c 0,0 -115.757,-42.867 -128.613,-178.617 H 815.117 1293.7 c -12.86,135.75 -128.61,178.617 -128.61,178.617"
         style="fill:#f9b095;fill-opacity:1;fill-rule:nonzero;stroke:none"
         transform="matrix(0.13333333,0,0,-0.13333333,625.77169,563.30465)"
         clip-path="url(#clipPath229)" /><path
         id="path230"
         d="m 1165.09,477.129 -249.762,65.32 H 714.91 l -249.758,-65.32 c 0,0 -115.757,-42.867 -128.613,-178.617 H 815.117 1293.7 c -12.86,135.75 -128.61,178.617 -128.61,178.617"
         style="fill:#ffffff;fill-opacity:1;fill-rule:nonzero;stroke:none"
         transform="matrix(0.13333333,0,0,-0.13333333,625.77169,563.30465)"
         clip-path="url(#clipPath231)" /><path
         id="path232"
         d="M 1165.09,477.129 980.25,525.469 815.117,298.512 651.77,525.93 465.152,477.129 c 0,0 -115.757,-42.867 -128.613,-178.617 H 815.117 1293.7 c -12.86,135.75 -128.61,178.617 -128.61,178.617"
         style="fill:#062138;fill-opacity:1;fill-rule:nonzero;stroke:none"
         transform="matrix(0.13333333,0,0,-0.13333333,625.77169,563.30465)"
         clip-path="url(#clipPath233)" /><path
         id="path234"
         d="M 793.203,412.219 747.184,298.512 h 130.75 l -44.852,113.707 h -39.879"
         style="fill:#f9a72b;fill-opacity:1;fill-rule:nonzero;stroke:none"
         transform="matrix(0.13333333,0,0,-0.13333333,625.77169,563.30465)"
         clip-path="url(#clipPath235)" /><path
         id="path236"
         d="m 812.109,540.219 -58.589,-78.59 40.722,-49.719 19.942,0.32 19.925,0.329 39.094,51.019 -61.094,76.641"
         style="fill:#f9a72b;fill-opacity:1;fill-rule:nonzero;stroke:none"
         transform="matrix(0.13333333,0,0,-0.13333333,625.77169,563.30465)"
         clip-path="url(#clipPath237)" /><path
         id="path238"
         d="m 753.52,461.629 56.16,75.332 c -0.004,0 -0.008,-0.012 -0.008,-0.012 l -56.152,-75.32"
         style="fill:#d3d2d2;fill-opacity:1;fill-rule:nonzero;stroke:none"
         transform="matrix(0.13333333,0,0,-0.13333333,625.77169,563.30465)"
         clip-path="url(#clipPath239)" /><path
         id="path240"
         d="m 794.242,411.91 -40.722,49.719 56.152,75.32 c -6.586,-17.34 -18.414,-32.597 -22.817,-50.918 -4.531,-18.812 4.473,-37.312 24.032,-41.609 1.992,-0.442 3.922,-0.641 5.801,-0.641 15.98,0 27.839,14.899 34.558,28.16 2.016,4.008 3.809,8.161 5.418,12.379 l 16.539,-20.742 -39.094,-51.019 -39.867,-0.649"
         style="fill:#cd8923;fill-opacity:1;fill-rule:nonzero;stroke:none"
         transform="matrix(0.13333333,0,0,-0.13333333,625.77169,563.30465)"
         clip-path="url(#clipPath241)" /><path
         id="path242"
         d="m 587.875,929.578 c 0,0 33.438,203.482 137.75,183.472 0,0 94.313,-58.67 172.91,1.38 0,0 95.36,3.21 147.705,-184.852 0,0 13.06,200.622 -130.912,272.072 0,0 -133.199,61.45 -247.187,-30.01 0,0 -107.981,-85.32 -80.266,-242.062"
         style="fill:#351f17;fill-opacity:1;fill-rule:nonzero;stroke:none"
         transform="matrix(0.13333333,0,0,-0.13333333,625.77169,563.30465)"
         clip-path="url(#clipPath243)" /><path
         id="path244"
         d="M 815.117,298.512 651.77,525.93 521.168,491.781 688.066,374.27 l -42.867,-18.911 77.16,-56.847 h 92.758"
         style="fill:#001930;fill-opacity:1;fill-rule:nonzero;stroke:none"
         transform="matrix(0.13333333,0,0,-0.13333333,625.77169,563.30465)"
         clip-path="url(#clipPath245)" /><path
         id="path246"
         d="M 815.117,298.199 978.461,525.621 1109.07,491.469 942.164,373.961 985.039,355.051 907.875,298.199 H 815.117"
         style="fill:#001930;fill-opacity:1;fill-rule:nonzero;stroke:none"
         transform="matrix(0.13333333,0,0,-0.13333333,625.77169,563.30465)"
         clip-path="url(#clipPath247)" /><path
         id="path248"
         d="m 616.617,537.672 97.953,45.949 99.868,-41.711 99.863,41.711 104.659,-45.949 -147.983,-99.094 -56.539,80.992 -60.918,-80.992 -136.903,99.094"
         style="fill:#e5e4e4;fill-opacity:1;fill-rule:nonzero;stroke:none"
         transform="matrix(0.13333333,0,0,-0.13333333,625.77169,563.30465)"
         clip-path="url(#clipPath249)" /></g></g></svg>
