<?xml version="1.0" encoding="UTF-8" standalone="no"?>
<!-- Created with Inkscape (http://www.inkscape.org/) -->

<svg
   width="36.923489mm"
   height="36.923481mm"
   viewBox="0 0 36.923488 36.92348"
   version="1.1"
   id="svg1"
   xml:space="preserve"
   xmlns:inkscape="http://www.inkscape.org/namespaces/inkscape"
   xmlns:sodipodi="http://sodipodi.sourceforge.net/DTD/sodipodi-0.dtd"
   xmlns="http://www.w3.org/2000/svg"
   xmlns:svg="http://www.w3.org/2000/svg"><sodipodi:namedview
     id="namedview1"
     pagecolor="#ffffff"
     bordercolor="#000000"
     borderopacity="0.25"
     inkscape:showpageshadow="2"
     inkscape:pageopacity="0.0"
     inkscape:pagecheckerboard="0"
     inkscape:deskcolor="#d1d1d1"
     inkscape:document-units="mm"><inkscape:page
       x="-1.2510025e-06"
       y="-7.7811711e-07"
       width="36.923489"
       height="36.923481"
       id="page1"
       margin="0"
       bleed="0" /></sodipodi:namedview><defs
     id="defs1"><clipPath
       clipPathUnits="userSpaceOnUse"
       id="clipPath251"><path
         d="m 2649.31,817.672 c 0,-289.024 -234.3,-523.332 -523.32,-523.332 -289.03,0 -523.33,234.308 -523.33,523.332 0,289.018 234.3,523.318 523.33,523.318 289.02,0 523.32,-234.3 523.32,-523.318"
         transform="translate(0,-2.5000001e-5)"
         id="path251" /></clipPath><clipPath
       clipPathUnits="userSpaceOnUse"
       id="clipPath253"><path
         d="m 2649.31,817.672 c 0,-289.024 -234.3,-523.332 -523.32,-523.332 -289.03,0 -523.33,234.308 -523.33,523.332 0,289.018 234.3,523.318 523.33,523.318 289.02,0 523.32,-234.3 523.32,-523.318"
         transform="translate(0,-2.5000001e-5)"
         id="path253" /></clipPath><clipPath
       clipPathUnits="userSpaceOnUse"
       id="clipPath255"><path
         d="m 2649.31,817.672 c 0,-289.024 -234.3,-523.332 -523.32,-523.332 -289.03,0 -523.33,234.308 -523.33,523.332 0,289.018 234.3,523.318 523.33,523.318 289.02,0 523.32,-234.3 523.32,-523.318"
         transform="translate(0,-2.5000001e-5)"
         id="path255" /></clipPath><clipPath
       clipPathUnits="userSpaceOnUse"
       id="clipPath257"><path
         d="m 2649.31,817.672 c 0,-289.024 -234.3,-523.332 -523.32,-523.332 -289.03,0 -523.33,234.308 -523.33,523.332 0,289.018 234.3,523.318 523.33,523.318 289.02,0 523.32,-234.3 523.32,-523.318"
         transform="translate(0,-2.5000001e-5)"
         id="path257" /></clipPath><clipPath
       clipPathUnits="userSpaceOnUse"
       id="clipPath259"><path
         d="m 2649.31,817.672 c 0,-289.024 -234.3,-523.332 -523.32,-523.332 -289.03,0 -523.33,234.308 -523.33,523.332 0,289.018 234.3,523.318 523.33,523.318 289.02,0 523.32,-234.3 523.32,-523.318"
         transform="translate(0,-2.5000001e-5)"
         id="path259" /></clipPath><clipPath
       clipPathUnits="userSpaceOnUse"
       id="clipPath261"><path
         d="m 2649.31,817.672 c 0,-289.024 -234.3,-523.332 -523.32,-523.332 -289.03,0 -523.33,234.308 -523.33,523.332 0,289.018 234.3,523.318 523.33,523.318 289.02,0 523.32,-234.3 523.32,-523.318"
         transform="translate(0,-2.5000001e-5)"
         id="path261" /></clipPath><clipPath
       clipPathUnits="userSpaceOnUse"
       id="clipPath263"><path
         d="m 2649.31,817.672 c 0,-289.024 -234.3,-523.332 -523.32,-523.332 -289.03,0 -523.33,234.308 -523.33,523.332 0,289.018 234.3,523.318 523.33,523.318 289.02,0 523.32,-234.3 523.32,-523.318"
         transform="translate(0,-2.5000001e-5)"
         id="path263" /></clipPath><clipPath
       clipPathUnits="userSpaceOnUse"
       id="clipPath265"><path
         d="m 2649.31,817.672 c 0,-289.024 -234.3,-523.332 -523.32,-523.332 -289.03,0 -523.33,234.308 -523.33,523.332 0,289.018 234.3,523.318 523.33,523.318 289.02,0 523.32,-234.3 523.32,-523.318"
         transform="translate(0,-2.5000001e-5)"
         id="path265" /></clipPath><clipPath
       clipPathUnits="userSpaceOnUse"
       id="clipPath267"><path
         d="m 2649.31,817.672 c 0,-289.024 -234.3,-523.332 -523.32,-523.332 -289.03,0 -523.33,234.308 -523.33,523.332 0,289.018 234.3,523.318 523.33,523.318 289.02,0 523.32,-234.3 523.32,-523.318"
         transform="translate(0,-2.5000001e-5)"
         id="path267" /></clipPath><clipPath
       clipPathUnits="userSpaceOnUse"
       id="clipPath269"><path
         d="m 2649.31,817.672 c 0,-289.024 -234.3,-523.332 -523.32,-523.332 -289.03,0 -523.33,234.308 -523.33,523.332 0,289.018 234.3,523.318 523.33,523.318 289.02,0 523.32,-234.3 523.32,-523.318"
         transform="translate(0,-2.5000001e-5)"
         id="path269" /></clipPath><clipPath
       clipPathUnits="userSpaceOnUse"
       id="clipPath271"><path
         d="m 2649.31,817.672 c 0,-289.024 -234.3,-523.332 -523.32,-523.332 -289.03,0 -523.33,234.308 -523.33,523.332 0,289.018 234.3,523.318 523.33,523.318 289.02,0 523.32,-234.3 523.32,-523.318"
         transform="translate(0,-2.5000001e-5)"
         id="path271" /></clipPath><clipPath
       clipPathUnits="userSpaceOnUse"
       id="clipPath273"><path
         d="m 2649.31,817.672 c 0,-289.024 -234.3,-523.332 -523.32,-523.332 -289.03,0 -523.33,234.308 -523.33,523.332 0,289.018 234.3,523.318 523.33,523.318 289.02,0 523.32,-234.3 523.32,-523.318"
         transform="translate(0,-2.5000001e-5)"
         id="path273" /></clipPath><clipPath
       clipPathUnits="userSpaceOnUse"
       id="clipPath275"><path
         d="m 2649.31,817.672 c 0,-289.024 -234.3,-523.332 -523.32,-523.332 -289.03,0 -523.33,234.308 -523.33,523.332 0,289.018 234.3,523.318 523.33,523.318 289.02,0 523.32,-234.3 523.32,-523.318"
         transform="translate(0,-2.5000001e-5)"
         id="path275" /></clipPath><clipPath
       clipPathUnits="userSpaceOnUse"
       id="clipPath277"><path
         d="m 2649.31,817.672 c 0,-289.024 -234.3,-523.332 -523.32,-523.332 -289.03,0 -523.33,234.308 -523.33,523.332 0,289.018 234.3,523.318 523.33,523.318 289.02,0 523.32,-234.3 523.32,-523.318"
         transform="translate(0,-2.5000001e-5)"
         id="path277" /></clipPath></defs><g
     id="g1"
     inkscape:groupmode="layer"
     inkscape:label="1"
     transform="matrix(0.26458333,0,0,0.26458334,-222.10706,-101.73389)"><path
       id="path2"
       d="M 625.77221,563.30569 H 1192.7002 V -3.6236292 H 625.77221 Z"
       style="fill:#ffffff;fill-opacity:1;fill-rule:nonzero;stroke:none;stroke-width:0.133333" /><g
       id="g31"><path
         id="path5-9"
         d="m 979.01301,454.28172 c 0,38.53653 -31.23999,69.7776 -69.77599,69.7776 -38.53734,0 -69.77734,-31.24107 -69.77734,-69.7776 0,-38.53573 31.24,-69.77573 69.77734,-69.77573 38.536,0 69.77599,31.24 69.77599,69.77573"
         style="fill:#5a8c35;fill-opacity:1;fill-rule:nonzero;stroke:none;stroke-width:0.133333" /><path
         id="path250"
         d="m 1886.48,849.879 c -2.93,-4.297 -11.91,-368.231 52.04,-442.731 h 361.97 c 0,0 98.86,279.391 31.52,442.731 h -447.68 2.15"
         style="fill:#3f0e12;fill-opacity:1;fill-rule:nonzero;stroke:none"
         transform="matrix(0.13333333,0,0,-0.13333333,625.77169,563.30465)"
         clip-path="url(#clipPath251)" /><path
         id="path252"
         d="m 2031.56,514.809 h 200.41 V 649.84 h -200.41 z"
         style="fill:#f9b095;fill-opacity:1;fill-rule:nonzero;stroke:none"
         transform="matrix(0.13333333,0,0,-0.13333333,625.77169,563.30465)"
         clip-path="url(#clipPath253)" /><path
         id="path254"
         d="m 2177.64,532.672 c -0.54,0 -1.09,0 -1.63,0 -32.51,0.269 -65.65,7.539 -95.84,19.508 -16.56,6.558 -34.54,15.429 -48.61,27.82 v 69.84 h 200.41 V 538.102 c -17.85,-3.161 -36.21,-5.43 -54.33,-5.43"
         style="fill:#e4a187;fill-opacity:1;fill-rule:nonzero;stroke:none"
         transform="matrix(0.13333333,0,0,-0.13333333,625.77169,563.30465)"
         clip-path="url(#clipPath255)" /><path
         id="path256"
         d="m 2348.7,903.91 c 0.68,4.969 9.12,13.059 12.8,15.789 8.24,6.09 16.54,-0.168 18.93,-8.09 2.15,-7.089 2.35,-15.07 2.87,-22.418 1.27,-17.921 -1.46,-35.531 -9.54,-51.703 -5.39,-10.789 -13.83,-19.656 -23.84,-26.347 0,0 -10.78,-5.36 -12.92,6.961 l 11.7,85.808"
         style="fill:#f9b095;fill-opacity:1;fill-rule:nonzero;stroke:none"
         transform="matrix(0.13333333,0,0,-0.13333333,625.77169,563.30465)"
         clip-path="url(#clipPath257)" /><path
         id="path258"
         d="m 2346.99,893.148 c 0.48,3.551 6.52,9.34 9.15,11.301 5.9,4.352 11.83,-0.129 13.56,-5.801 1.54,-5.07 1.68,-10.777 2.05,-16.039 0.89,-12.828 -1.06,-25.418 -6.83,-36.988 -3.86,-7.723 -9.91,-14.082 -17.06,-18.871 0,0 -7.71,-3.82 -9.25,4.988 l 8.38,61.41"
         style="fill:#dd9c83;fill-opacity:1;fill-rule:nonzero;stroke:none"
         transform="matrix(0.13333333,0,0,-0.13333333,625.77169,563.30465)"
         clip-path="url(#clipPath259)" /><path
         id="path260"
         d="m 1909.74,903.91 c -0.68,4.969 -9.12,13.059 -12.81,15.789 -8.22,6.09 -16.51,-0.168 -18.92,-8.09 -2.16,-7.089 -2.36,-15.07 -2.87,-22.418 -1.25,-17.921 1.46,-35.531 9.53,-51.703 5.39,-10.789 13.84,-19.656 23.85,-26.347 0,0 10.78,-5.36 12.92,6.961 l -11.7,85.808"
         style="fill:#f9b095;fill-opacity:1;fill-rule:nonzero;stroke:none"
         transform="matrix(0.13333333,0,0,-0.13333333,625.77169,563.30465)"
         clip-path="url(#clipPath261)" /><path
         id="path262"
         d="m 1911.45,893.148 c -0.48,3.551 -6.51,9.34 -9.16,11.301 -5.89,4.352 -11.83,-0.129 -13.54,-5.801 -1.54,-5.07 -1.67,-10.777 -2.07,-16.039 -0.88,-12.828 1.06,-25.418 6.84,-36.988 3.86,-7.723 9.9,-14.082 17.07,-18.871 0,0 7.71,-3.82 9.25,4.988 l -8.39,61.41"
         style="fill:#dd9c83;fill-opacity:1;fill-rule:nonzero;stroke:none"
         transform="matrix(0.13333333,0,0,-0.13333333,625.77169,563.30465)"
         clip-path="url(#clipPath263)" /><path
         id="path264"
         d="m 2355.28,887.781 c 0,-56.582 -9.76,-113.793 -36.45,-162.75 -23.32,-42.82 -58.31,-77.09 -95.88,-104.492 -30.47,-22.199 -63.16,-48.078 -101.71,-44.93 -40.22,3.313 -71.54,37.571 -100.91,64.313 -41.32,37.609 -73.92,84.328 -94,139.289 -12.38,33.859 -18.08,72.098 -18.08,108.57 0,182.889 100.07,297.929 223.51,297.929 123.45,0 223.52,-115.04 223.52,-297.929"
         style="fill:#f9b095;fill-opacity:1;fill-rule:nonzero;stroke:none"
         transform="matrix(0.13333333,0,0,-0.13333333,625.77169,563.30465)"
         clip-path="url(#clipPath265)" /><path
         id="path266"
         d="m 2436.69,453.75 -217.61,65.309 H 2044.47 L 1826.85,453.75 c 0,0 -100.85,-42.871 -112.05,-178.621 h 416.96 416.98 c -11.2,135.75 -112.05,178.621 -112.05,178.621"
         style="fill:#f9b095;fill-opacity:1;fill-rule:nonzero;stroke:none"
         transform="matrix(0.13333333,0,0,-0.13333333,625.77169,563.30465)"
         clip-path="url(#clipPath267)" /><path
         id="path268"
         d="m 2436.69,453.75 -120.34,36.121 -184.59,-184.449 -185.11,184.277 -119.8,-35.949 c 0,0 -100.85,-42.871 -112.05,-178.621 h 416.96 416.98 c -11.2,135.75 -112.05,178.621 -112.05,178.621"
         style="fill:#2e6a87;fill-opacity:1;fill-rule:nonzero;stroke:none"
         transform="matrix(0.13333333,0,0,-0.13333333,625.77169,563.30465)"
         clip-path="url(#clipPath269)" /><path
         id="path270"
         d="m 1980.08,1113.06 c 0,0 107.64,-170.708 374.5,-199.751 0,0 50.5,194.481 -137.19,289.041 0,0 -143.64,59.27 -237.31,-89.29"
         style="fill:#661923;fill-opacity:1;fill-rule:nonzero;stroke:none"
         transform="matrix(0.13333333,0,0,-0.13333333,625.77169,563.30465)"
         clip-path="url(#clipPath271)" /><path
         id="path272"
         d="m 2007.67,1078.53 c 0,0 -69.5,-44.97 -99.68,-170.479 0,0 -32.34,236.499 134.95,266.039 l -35.27,-95.56"
         style="fill:#351f17;fill-opacity:1;fill-rule:nonzero;stroke:none"
         transform="matrix(0.13333333,0,0,-0.13333333,625.77169,563.30465)"
         clip-path="url(#clipPath273)" /><path
         id="path274"
         d="m 2280.43,932.988 c 0,0 71.64,-455.629 -41.55,-584.59 0,0 144.71,21.493 151.87,220.653 0,0 25.79,406.91 -72.14,547.339 l -38.18,-183.402"
         style="fill:#661923;fill-opacity:1;fill-rule:nonzero;stroke:none"
         transform="matrix(0.13333333,0,0,-0.13333333,625.77169,563.30465)"
         clip-path="url(#clipPath275)" /><path
         id="path276"
         d="m 1974.21,348.398 c 0,0 -166.6,19.75 -120.75,532.133 0,0 11.46,284.559 178.1,291.109 l -9.64,-107.97 c 0,0 -95.77,-28.52 -83.4,-253.69 0,0 -9.75,-362.71 35.69,-461.582"
         style="fill:#661923;fill-opacity:1;fill-rule:nonzero;stroke:none"
         transform="matrix(0.13333333,0,0,-0.13333333,625.77169,563.30465)"
         clip-path="url(#clipPath277)" /></g></g></svg>
