<?xml version="1.0" encoding="UTF-8" standalone="no"?>
<!-- Created with Inkscape (http://www.inkscape.org/) -->

<svg
   width="36.923489mm"
   height="36.923481mm"
   viewBox="0 0 36.923488 36.92348"
   version="1.1"
   id="svg1"
   xml:space="preserve"
   xmlns:inkscape="http://www.inkscape.org/namespaces/inkscape"
   xmlns:sodipodi="http://sodipodi.sourceforge.net/DTD/sodipodi-0.dtd"
   xmlns="http://www.w3.org/2000/svg"
   xmlns:svg="http://www.w3.org/2000/svg"><sodipodi:namedview
     id="namedview1"
     pagecolor="#ffffff"
     bordercolor="#000000"
     borderopacity="0.25"
     inkscape:showpageshadow="2"
     inkscape:pageopacity="0.0"
     inkscape:pagecheckerboard="0"
     inkscape:deskcolor="#d1d1d1"
     inkscape:document-units="mm"><inkscape:page
       x="-1.510963e-06"
       y="-7.7811711e-07"
       width="36.923489"
       height="36.923481"
       id="page1"
       margin="0"
       bleed="0" /></sodipodi:namedview><defs
     id="defs1"><clipPath
       clipPathUnits="userSpaceOnUse"
       id="clipPath279"><path
         d="m 3957.62,817.672 c 0,-289.024 -234.3,-523.332 -523.32,-523.332 -289.03,0 -523.33,234.308 -523.33,523.332 0,289.018 234.3,523.318 523.33,523.318 289.02,0 523.32,-234.3 523.32,-523.318"
         transform="translate(0,-2.5000001e-5)"
         id="path279" /></clipPath><clipPath
       clipPathUnits="userSpaceOnUse"
       id="clipPath281"><path
         d="m 3957.62,817.672 c 0,-289.024 -234.3,-523.332 -523.32,-523.332 -289.03,0 -523.33,234.308 -523.33,523.332 0,289.018 234.3,523.318 523.33,523.318 289.02,0 523.32,-234.3 523.32,-523.318"
         transform="translate(0,-2.5000001e-5)"
         id="path281" /></clipPath><clipPath
       clipPathUnits="userSpaceOnUse"
       id="clipPath283"><path
         d="m 3957.62,817.672 c 0,-289.024 -234.3,-523.332 -523.32,-523.332 -289.03,0 -523.33,234.308 -523.33,523.332 0,289.018 234.3,523.318 523.33,523.318 289.02,0 523.32,-234.3 523.32,-523.318"
         transform="translate(0,-2.5000001e-5)"
         id="path283" /></clipPath><clipPath
       clipPathUnits="userSpaceOnUse"
       id="clipPath285"><path
         d="m 3957.62,817.672 c 0,-289.024 -234.3,-523.332 -523.32,-523.332 -289.03,0 -523.33,234.308 -523.33,523.332 0,289.018 234.3,523.318 523.33,523.318 289.02,0 523.32,-234.3 523.32,-523.318"
         transform="translate(0,-2.5000001e-5)"
         id="path285" /></clipPath><clipPath
       clipPathUnits="userSpaceOnUse"
       id="clipPath287"><path
         d="m 3957.62,817.672 c 0,-289.024 -234.3,-523.332 -523.32,-523.332 -289.03,0 -523.33,234.308 -523.33,523.332 0,289.018 234.3,523.318 523.33,523.318 289.02,0 523.32,-234.3 523.32,-523.318"
         transform="translate(0,-2.5000001e-5)"
         id="path287" /></clipPath><clipPath
       clipPathUnits="userSpaceOnUse"
       id="clipPath289"><path
         d="m 3957.62,817.672 c 0,-289.024 -234.3,-523.332 -523.32,-523.332 -289.03,0 -523.33,234.308 -523.33,523.332 0,289.018 234.3,523.318 523.33,523.318 289.02,0 523.32,-234.3 523.32,-523.318"
         transform="translate(0,-2.5000001e-5)"
         id="path289" /></clipPath><clipPath
       clipPathUnits="userSpaceOnUse"
       id="clipPath291"><path
         d="m 3957.62,817.672 c 0,-289.024 -234.3,-523.332 -523.32,-523.332 -289.03,0 -523.33,234.308 -523.33,523.332 0,289.018 234.3,523.318 523.33,523.318 289.02,0 523.32,-234.3 523.32,-523.318"
         transform="translate(0,-2.5000001e-5)"
         id="path291" /></clipPath><clipPath
       clipPathUnits="userSpaceOnUse"
       id="clipPath293"><path
         d="m 3957.62,817.672 c 0,-289.024 -234.3,-523.332 -523.32,-523.332 -289.03,0 -523.33,234.308 -523.33,523.332 0,289.018 234.3,523.318 523.33,523.318 289.02,0 523.32,-234.3 523.32,-523.318"
         transform="translate(0,-2.5000001e-5)"
         id="path293" /></clipPath><clipPath
       clipPathUnits="userSpaceOnUse"
       id="clipPath295"><path
         d="m 3957.62,817.672 c 0,-289.024 -234.3,-523.332 -523.32,-523.332 -289.03,0 -523.33,234.308 -523.33,523.332 0,289.018 234.3,523.318 523.33,523.318 289.02,0 523.32,-234.3 523.32,-523.318"
         transform="translate(0,-2.5000001e-5)"
         id="path295" /></clipPath><clipPath
       clipPathUnits="userSpaceOnUse"
       id="clipPath297"><path
         d="m 3957.62,817.672 c 0,-289.024 -234.3,-523.332 -523.32,-523.332 -289.03,0 -523.33,234.308 -523.33,523.332 0,289.018 234.3,523.318 523.33,523.318 289.02,0 523.32,-234.3 523.32,-523.318"
         transform="translate(0,-2.5000001e-5)"
         id="path297" /></clipPath><clipPath
       clipPathUnits="userSpaceOnUse"
       id="clipPath299"><path
         d="m 3957.62,817.672 c 0,-289.024 -234.3,-523.332 -523.32,-523.332 -289.03,0 -523.33,234.308 -523.33,523.332 0,289.018 234.3,523.318 523.33,523.318 289.02,0 523.32,-234.3 523.32,-523.318"
         transform="translate(0,-2.5000001e-5)"
         id="path299" /></clipPath><clipPath
       clipPathUnits="userSpaceOnUse"
       id="clipPath301"><path
         d="m 3957.62,817.672 c 0,-289.024 -234.3,-523.332 -523.32,-523.332 -289.03,0 -523.33,234.308 -523.33,523.332 0,289.018 234.3,523.318 523.33,523.318 289.02,0 523.32,-234.3 523.32,-523.318"
         transform="translate(0,-2.5000001e-5)"
         id="path301" /></clipPath><clipPath
       clipPathUnits="userSpaceOnUse"
       id="clipPath303"><path
         d="m 3957.62,817.672 c 0,-289.024 -234.3,-523.332 -523.32,-523.332 -289.03,0 -523.33,234.308 -523.33,523.332 0,289.018 234.3,523.318 523.33,523.318 289.02,0 523.32,-234.3 523.32,-523.318"
         transform="translate(0,-2.5000001e-5)"
         id="path303" /></clipPath><clipPath
       clipPathUnits="userSpaceOnUse"
       id="clipPath305"><path
         d="m 3957.62,817.672 c 0,-289.024 -234.3,-523.332 -523.32,-523.332 -289.03,0 -523.33,234.308 -523.33,523.332 0,289.018 234.3,523.318 523.33,523.318 289.02,0 523.32,-234.3 523.32,-523.318"
         transform="translate(0,-2.5000001e-5)"
         id="path305" /></clipPath><clipPath
       clipPathUnits="userSpaceOnUse"
       id="clipPath307"><path
         d="m 3957.62,817.672 c 0,-289.024 -234.3,-523.332 -523.32,-523.332 -289.03,0 -523.33,234.308 -523.33,523.332 0,289.018 234.3,523.318 523.33,523.318 289.02,0 523.32,-234.3 523.32,-523.318"
         transform="translate(0,-2.5000001e-5)"
         id="path307" /></clipPath><clipPath
       clipPathUnits="userSpaceOnUse"
       id="clipPath309"><path
         d="m 3957.62,817.672 c 0,-289.024 -234.3,-523.332 -523.32,-523.332 -289.03,0 -523.33,234.308 -523.33,523.332 0,289.018 234.3,523.318 523.33,523.318 289.02,0 523.32,-234.3 523.32,-523.318"
         transform="translate(0,-2.5000001e-5)"
         id="path309" /></clipPath><clipPath
       clipPathUnits="userSpaceOnUse"
       id="clipPath311"><path
         d="m 3957.62,817.672 c 0,-289.024 -234.3,-523.332 -523.32,-523.332 -289.03,0 -523.33,234.308 -523.33,523.332 0,289.018 234.3,523.318 523.33,523.318 289.02,0 523.32,-234.3 523.32,-523.318"
         transform="translate(0,-2.5000001e-5)"
         id="path311" /></clipPath><clipPath
       clipPathUnits="userSpaceOnUse"
       id="clipPath313"><path
         d="m 3957.62,817.672 c 0,-289.024 -234.3,-523.332 -523.32,-523.332 -289.03,0 -523.33,234.308 -523.33,523.332 0,289.018 234.3,523.318 523.33,523.318 289.02,0 523.32,-234.3 523.32,-523.318"
         transform="translate(0,-2.5000001e-5)"
         id="path313" /></clipPath><clipPath
       clipPathUnits="userSpaceOnUse"
       id="clipPath315"><path
         d="m 3957.62,817.672 c 0,-289.024 -234.3,-523.332 -523.32,-523.332 -289.03,0 -523.33,234.308 -523.33,523.332 0,289.018 234.3,523.318 523.33,523.318 289.02,0 523.32,-234.3 523.32,-523.318"
         transform="translate(0,-2.5000001e-5)"
         id="path315" /></clipPath><clipPath
       clipPathUnits="userSpaceOnUse"
       id="clipPath317"><path
         d="m 3957.62,817.672 c 0,-289.024 -234.3,-523.332 -523.32,-523.332 -289.03,0 -523.33,234.308 -523.33,523.332 0,289.018 234.3,523.318 523.33,523.318 289.02,0 523.32,-234.3 523.32,-523.318"
         transform="translate(0,-2.5000001e-5)"
         id="path317" /></clipPath><clipPath
       clipPathUnits="userSpaceOnUse"
       id="clipPath319"><path
         d="m 3957.62,817.672 c 0,-289.024 -234.3,-523.332 -523.32,-523.332 -289.03,0 -523.33,234.308 -523.33,523.332 0,289.018 234.3,523.318 523.33,523.318 289.02,0 523.32,-234.3 523.32,-523.318"
         transform="translate(0,-2.5000001e-5)"
         id="path319" /></clipPath><clipPath
       clipPathUnits="userSpaceOnUse"
       id="clipPath321"><path
         d="m 3957.62,817.672 c 0,-289.024 -234.3,-523.332 -523.32,-523.332 -289.03,0 -523.33,234.308 -523.33,523.332 0,289.018 234.3,523.318 523.33,523.318 289.02,0 523.32,-234.3 523.32,-523.318"
         transform="translate(0,-2.5000001e-5)"
         id="path321" /></clipPath><clipPath
       clipPathUnits="userSpaceOnUse"
       id="clipPath323"><path
         d="m 3957.62,817.672 c 0,-289.024 -234.3,-523.332 -523.32,-523.332 -289.03,0 -523.33,234.308 -523.33,523.332 0,289.018 234.3,523.318 523.33,523.318 289.02,0 523.32,-234.3 523.32,-523.318"
         transform="translate(0,-2.5000001e-5)"
         id="path323" /></clipPath></defs><g
     id="g1"
     inkscape:groupmode="layer"
     inkscape:label="1"
     transform="matrix(0.26458333,0,0,0.26458334,-268.2613,-101.73389)"><path
       id="path2"
       d="M 625.77221,563.30569 H 1192.7002 V -3.6236292 H 625.77221 Z"
       style="fill:#ffffff;fill-opacity:1;fill-rule:nonzero;stroke:none;stroke-width:0.133333" /><g
       id="g30"><path
         id="path4"
         d="m 1153.4543,454.28172 c 0,38.53653 -31.24,69.7776 -69.776,69.7776 -38.5373,0 -69.7773,-31.24107 -69.7773,-69.7776 0,-38.53573 31.24,-69.77573 69.7773,-69.77573 38.536,0 69.776,31.24 69.776,69.77573"
         style="fill:#f46f3f;fill-opacity:1;fill-rule:nonzero;stroke:none;stroke-width:0.133333" /><path
         id="path278"
         d="m 3334.09,510.332 h 200.422 V 645.371 H 3334.09 Z"
         style="fill:#f9b095;fill-opacity:1;fill-rule:nonzero;stroke:none"
         transform="matrix(0.13333333,0,0,-0.13333333,625.77169,563.30465)"
         clip-path="url(#clipPath279)" /><path
         id="path280"
         d="m 3480.28,528.199 c -0.58,0 -1.15,0 -1.73,0.012 -32.52,0.25 -65.67,7.519 -95.85,19.488 -16.56,6.571 -34.54,15.442 -48.61,27.832 v 69.84 h 200.42 v -111.75 c -17.81,-3.152 -36.17,-5.422 -54.23,-5.422"
         style="fill:#e4a187;fill-opacity:1;fill-rule:nonzero;stroke:none"
         transform="matrix(0.13333333,0,0,-0.13333333,625.77169,563.30465)"
         clip-path="url(#clipPath281)" /><path
         id="path282"
         d="m 3643.53,895.441 c 0.65,4.891 8.79,12.887 12.35,15.59 7.94,6.008 15.95,-0.172 18.27,-8 2.08,-6.992 2.27,-14.871 2.76,-22.14 1.22,-17.7 -1.4,-35.09 -9.2,-51.071 -5.2,-10.66 -13.36,-19.422 -23,-26.019 0,0 -10.4,-5.301 -12.47,6.879 l 11.29,84.761"
         style="fill:#f9b095;fill-opacity:1;fill-rule:nonzero;stroke:none"
         transform="matrix(0.13333333,0,0,-0.13333333,625.77169,563.30465)"
         clip-path="url(#clipPath283)" /><path
         id="path284"
         d="m 3641.88,884.801 c 0.46,3.508 6.28,9.23 8.83,11.16 5.69,4.301 11.41,-0.121 13.06,-5.723 1.5,-5.019 1.63,-10.636 1.99,-15.847 0.87,-12.672 -1.01,-25.11 -6.58,-36.539 -3.73,-7.633 -9.56,-13.903 -16.47,-18.633 0,0 -7.44,-3.789 -8.92,4.922 l 8.09,60.66"
         style="fill:#dd9c83;fill-opacity:1;fill-rule:nonzero;stroke:none"
         transform="matrix(0.13333333,0,0,-0.13333333,625.77169,563.30465)"
         clip-path="url(#clipPath285)" /><path
         id="path286"
         d="m 3219.96,895.441 c -0.65,4.891 -8.8,12.887 -12.36,15.59 -7.93,6.008 -15.93,-0.172 -18.26,-8 -2.07,-6.992 -2.27,-14.871 -2.76,-22.14 -1.22,-17.7 1.4,-35.09 9.21,-51.071 5.19,-10.66 13.34,-19.422 22.99,-26.019 0,0 10.4,-5.301 12.47,6.879 l -11.29,84.761"
         style="fill:#f9b095;fill-opacity:1;fill-rule:nonzero;stroke:none"
         transform="matrix(0.13333333,0,0,-0.13333333,625.77169,563.30465)"
         clip-path="url(#clipPath287)" /><path
         id="path288"
         d="m 3221.62,884.801 c -0.47,3.508 -6.29,9.23 -8.85,11.16 -5.68,4.301 -11.4,-0.121 -13.06,-5.723 -1.49,-5.019 -1.62,-10.636 -1.98,-15.847 -0.86,-12.672 1.01,-25.11 6.58,-36.539 3.73,-7.633 9.56,-13.903 16.47,-18.633 0,0 7.44,-3.789 8.92,4.922 l -8.08,60.66"
         style="fill:#dd9c83;fill-opacity:1;fill-rule:nonzero;stroke:none"
         transform="matrix(0.13333333,0,0,-0.13333333,625.77169,563.30465)"
         clip-path="url(#clipPath289)" /><path
         id="path290"
         d="m 3649.88,879.48 c 0,-55.871 -9.42,-112.39 -35.17,-160.75 -22.5,-42.289 -56.28,-76.16 -92.52,-103.21 -29.41,-21.942 -60.94,-47.508 -98.16,-44.379 -38.79,3.257 -69,37.097 -97.36,63.519 -39.86,37.149 -71.32,83.301 -90.7,137.582 -11.95,33.457 -17.44,71.219 -17.44,107.238 0,180.67 96.56,294.31 215.67,294.31 119.12,0 215.68,-113.64 215.68,-294.31"
         style="fill:#f9b095;fill-opacity:1;fill-rule:nonzero;stroke:none"
         transform="matrix(0.13333333,0,0,-0.13333333,625.77169,563.30465)"
         clip-path="url(#clipPath291)" /><path
         id="path292"
         d="m 3784.27,449.27 -249.76,65.32 h -200.42 l -249.76,-65.32 c 0,0 -115.75,-42.872 -128.61,-178.622 h 478.58 478.57 c -12.86,135.75 -128.6,178.622 -128.6,178.622"
         style="fill:#f9b095;fill-opacity:1;fill-rule:nonzero;stroke:none"
         transform="matrix(0.13333333,0,0,-0.13333333,625.77169,563.30465)"
         clip-path="url(#clipPath293)" /><path
         id="path294"
         d="m 3784.27,449.27 -249.76,65.32 h -200.42 l -249.76,-65.32 c 0,0 -115.75,-42.872 -128.61,-178.622 h 478.58 478.57 c -12.86,135.75 -128.6,178.622 -128.6,178.622"
         style="fill:#ffffff;fill-opacity:1;fill-rule:nonzero;stroke:none"
         transform="matrix(0.13333333,0,0,-0.13333333,625.77169,563.30465)"
         clip-path="url(#clipPath295)" /><path
         id="path296"
         d="M 3784.27,449.27 3599.43,497.609 3434.3,270.648 3270.95,498.082 3084.33,449.27 c 0,0 -115.75,-42.872 -128.61,-178.622 h 478.58 478.57 c -12.86,135.75 -128.6,178.622 -128.6,178.622"
         style="fill:#360609;fill-opacity:1;fill-rule:nonzero;stroke:none"
         transform="matrix(0.13333333,0,0,-0.13333333,625.77169,563.30465)"
         clip-path="url(#clipPath297)" /><path
         id="path298"
         d="m 3412.38,384.359 -46.01,-113.711 h 130.75 l -44.85,113.711 h -39.89"
         style="fill:#44bfa7;fill-opacity:1;fill-rule:nonzero;stroke:none"
         transform="matrix(0.13333333,0,0,-0.13333333,625.77169,563.30465)"
         clip-path="url(#clipPath299)" /><path
         id="path300"
         d="m 3431.28,512.359 -58.58,-78.589 40.72,-49.731 19.93,0.332 19.95,0.328 39.08,51.02 -61.1,76.64"
         style="fill:#44bfa7;fill-opacity:1;fill-rule:nonzero;stroke:none"
         transform="matrix(0.13333333,0,0,-0.13333333,625.77169,563.30465)"
         clip-path="url(#clipPath301)" /><path
         id="path302"
         d="m 3432.81,384.359 h -0.04 l 0.58,0.012 19.95,0.328 39.08,51.02 -39.08,-51.02 -20.49,-0.34 m -60.11,49.411 56.16,75.339 -0.01,-0.007 -56.15,-75.332"
         style="fill:#d3d2d2;fill-opacity:1;fill-rule:nonzero;stroke:none"
         transform="matrix(0.13333333,0,0,-0.13333333,625.77169,563.30465)"
         clip-path="url(#clipPath303)" /><path
         id="path304"
         d="m 3413.42,384.039 -0.26,0.32 0.26,-0.32 19.35,0.32 h 0.04 l -19.39,-0.32"
         style="fill:#389d8a;fill-opacity:1;fill-rule:nonzero;stroke:none"
         transform="matrix(0.13333333,0,0,-0.13333333,625.77169,563.30465)"
         clip-path="url(#clipPath305)" /><path
         id="path306"
         d="m 3413.42,384.039 -0.26,0.32 -40.46,49.411 56.15,75.332 c -6.58,-17.34 -18.41,-32.602 -22.82,-50.93 -4.52,-18.813 4.48,-37.313 24.03,-41.613 1.99,-0.43 3.92,-0.637 5.79,-0.637 15.99,0 27.87,14.898 34.57,28.148 2.03,4.02 3.81,8.16 5.42,12.391 l 16.54,-20.742 -39.08,-51.02 -19.95,-0.328 -0.58,-0.012 -19.35,-0.32"
         style="fill:#389d8a;fill-opacity:1;fill-rule:nonzero;stroke:none"
         transform="matrix(0.13333333,0,0,-0.13333333,625.77169,563.30465)"
         clip-path="url(#clipPath307)" /><path
         id="path308"
         d="m 3434.3,270.648 -163.35,227.434 -130.61,-34.172 166.91,-117.5 -42.87,-18.898 77.15,-56.864 h 92.77"
         style="fill:#240204;fill-opacity:1;fill-rule:nonzero;stroke:none"
         transform="matrix(0.13333333,0,0,-0.13333333,625.77169,563.30465)"
         clip-path="url(#clipPath309)" /><path
         id="path310"
         d="m 3434.3,270.34 163.35,227.422 130.6,-34.153 -166.9,-117.507 42.87,-18.911 -77.17,-56.851 h -92.75"
         style="fill:#240204;fill-opacity:1;fill-rule:nonzero;stroke:none"
         transform="matrix(0.13333333,0,0,-0.13333333,625.77169,563.30465)"
         clip-path="url(#clipPath311)" /><path
         id="path312"
         d="m 3235.79,509.801 97.96,45.949 99.86,-41.699 99.87,41.699 104.67,-45.949 -147.99,-99.082 -56.55,81 -60.91,-81 -136.91,99.082"
         style="fill:#e5e4e4;fill-opacity:1;fill-rule:nonzero;stroke:none"
         transform="matrix(0.13333333,0,0,-0.13333333,625.77169,563.30465)"
         clip-path="url(#clipPath313)" /><path
         id="path314"
         d="m 3560.55,648.18 c 0,0 54.15,51.211 66.11,96.398 0,0 -63.89,-57.637 -86.16,-51.508 l 20.05,-44.89"
         style="fill:#190d07;fill-opacity:1;fill-rule:nonzero;stroke:none"
         transform="matrix(0.13333333,0,0,-0.13333333,625.77169,563.30465)"
         clip-path="url(#clipPath315)" /><path
         id="path316"
         d="m 3323.08,632.852 c 0,0 -62.76,53.789 -80.03,121.187 0,0 71.62,-82.68 93.88,-76.527 l -13.85,-44.66"
         style="fill:#190d07;fill-opacity:1;fill-rule:nonzero;stroke:none"
         transform="matrix(0.13333333,0,0,-0.13333333,625.77169,563.30465)"
         clip-path="url(#clipPath317)" /><path
         id="path318"
         d="m 3472.47,721.531 c 35.45,-0.48 54.75,-12.73 54.75,-12.73 31.15,-14.672 39.09,-54.61 39.09,-54.61 0,0 -21.42,-23.703 -47.56,-40.472 -59.09,-48.977 -86.21,-42.789 -86.21,-42.789 -33.61,-0.051 -57.21,20.98 -57.21,20.98 l -55.3,43.328 c -6.88,49.242 36.08,73.563 36.08,73.563 25.77,12.531 30.43,10.847 30.43,10.847 0,0 38.59,4.512 48.04,-10.816 0,0 9.7,12.699 35.95,12.699"
         style="fill:#1e100a;fill-opacity:1;fill-rule:nonzero;stroke:none"
         transform="matrix(0.13333333,0,0,-0.13333333,625.77169,563.30465)"
         clip-path="url(#clipPath319)" /><path
         id="path320"
         d="m 3439.46,681.012 c 0,0 -24.27,12.129 -59.57,-0.91 0,0 53.59,-56.832 114.43,-0.743 0,0 -32.6,15.219 -54.86,1.653"
         style="fill:#f9b095;fill-opacity:1;fill-rule:nonzero;stroke:none"
         transform="matrix(0.13333333,0,0,-0.13333333,625.77169,563.30465)"
         clip-path="url(#clipPath321)" /><path
         id="path322"
         d="m 3651.81,1145.97 c 48.59,35.37 43.29,89.8 43.29,89.8 -28.25,-31.07 -69.73,-35.13 -69.73,-35.13 42.88,25.71 21.6,79.29 21.6,79.29 -13.4,-30 -73.04,-47.15 -73.04,-47.15 28.94,19.3 10.91,63.24 10.91,63.24 -20.16,-34.3 -80.57,-49.31 -80.57,-49.31 39.66,22.52 43.94,54.66 43.94,54.66 -35.37,-31.07 -131.82,-46.08 -131.82,-46.08 0,0 -106.25,-9.67 -132.65,-97.96 -77.7,-11.19 -78.42,-142.57 -73.03,-213.49 v -0.008 l 4.92,-85.793 h 17.26 c -7.73,41.09 0,96.82 0,96.82 11.86,39.93 17.96,63.541 25.62,80.241 18.43,40.2 47.12,52.4 65.45,55.99 l 17.41,1.3 c 76.09,11.14 98.53,-42.87 98.53,-42.87 11.78,31.08 51.52,38.58 51.52,38.58 115.73,15.43 132.33,-76.09 132.33,-76.09 l 13.07,-58.24 c 1.8,-19.391 4.93,-64.301 -0.99,-95.731 h 17.27 l 4.92,85.793 c 0.13,2.648 0.11,4.977 -0.02,7.09 8.71,47.828 16.45,125.788 -6.19,195.048"
         style="fill:#190d07;fill-opacity:1;fill-rule:nonzero;stroke:none"
         transform="matrix(0.13333333,0,0,-0.13333333,625.77169,563.30465)"
         clip-path="url(#clipPath323)" /></g></g></svg>
