<?xml version="1.0" encoding="UTF-8" standalone="no"?>
<!-- Created with Inkscape (http://www.inkscape.org/) -->

<svg
   width="36.923489mm"
   height="36.923481mm"
   viewBox="0 0 36.923488 36.92348"
   version="1.1"
   id="svg1"
   xml:space="preserve"
   sodipodi:docname="empty.svg"
   xmlns:inkscape="http://www.inkscape.org/namespaces/inkscape"
   xmlns:sodipodi="http://sodipodi.sourceforge.net/DTD/sodipodi-0.dtd"
   xmlns="http://www.w3.org/2000/svg"
   xmlns:svg="http://www.w3.org/2000/svg"><sodipodi:namedview
     id="namedview1"
     pagecolor="#ffffff"
     bordercolor="#000000"
     borderopacity="0.25"
     inkscape:showpageshadow="2"
     inkscape:pageopacity="0.0"
     inkscape:pagecheckerboard="0"
     inkscape:deskcolor="#d1d1d1"
     inkscape:document-units="mm" /><defs
     id="defs1"><clipPath
       clipPathUnits="userSpaceOnUse"
       id="clipPath279"><path
         d="m 3957.62,817.672 c 0,-289.024 -234.3,-523.332 -523.32,-523.332 -289.03,0 -523.33,234.308 -523.33,523.332 0,289.018 234.3,523.318 523.33,523.318 289.02,0 523.32,-234.3 523.32,-523.318"
         transform="translate(0,-2.5000001e-5)"
         id="path279" /></clipPath><clipPath
       clipPathUnits="userSpaceOnUse"
       id="clipPath281"><path
         d="m 3957.62,817.672 c 0,-289.024 -234.3,-523.332 -523.32,-523.332 -289.03,0 -523.33,234.308 -523.33,523.332 0,289.018 234.3,523.318 523.33,523.318 289.02,0 523.32,-234.3 523.32,-523.318"
         transform="translate(0,-2.5000001e-5)"
         id="path281" /></clipPath><clipPath
       clipPathUnits="userSpaceOnUse"
       id="clipPath283"><path
         d="m 3957.62,817.672 c 0,-289.024 -234.3,-523.332 -523.32,-523.332 -289.03,0 -523.33,234.308 -523.33,523.332 0,289.018 234.3,523.318 523.33,523.318 289.02,0 523.32,-234.3 523.32,-523.318"
         transform="translate(0,-2.5000001e-5)"
         id="path283" /></clipPath><clipPath
       clipPathUnits="userSpaceOnUse"
       id="clipPath285"><path
         d="m 3957.62,817.672 c 0,-289.024 -234.3,-523.332 -523.32,-523.332 -289.03,0 -523.33,234.308 -523.33,523.332 0,289.018 234.3,523.318 523.33,523.318 289.02,0 523.32,-234.3 523.32,-523.318"
         transform="translate(0,-2.5000001e-5)"
         id="path285" /></clipPath><clipPath
       clipPathUnits="userSpaceOnUse"
       id="clipPath287"><path
         d="m 3957.62,817.672 c 0,-289.024 -234.3,-523.332 -523.32,-523.332 -289.03,0 -523.33,234.308 -523.33,523.332 0,289.018 234.3,523.318 523.33,523.318 289.02,0 523.32,-234.3 523.32,-523.318"
         transform="translate(0,-2.5000001e-5)"
         id="path287" /></clipPath><clipPath
       clipPathUnits="userSpaceOnUse"
       id="clipPath289"><path
         d="m 3957.62,817.672 c 0,-289.024 -234.3,-523.332 -523.32,-523.332 -289.03,0 -523.33,234.308 -523.33,523.332 0,289.018 234.3,523.318 523.33,523.318 289.02,0 523.32,-234.3 523.32,-523.318"
         transform="translate(0,-2.5000001e-5)"
         id="path289" /></clipPath><clipPath
       clipPathUnits="userSpaceOnUse"
       id="clipPath291"><path
         d="m 3957.62,817.672 c 0,-289.024 -234.3,-523.332 -523.32,-523.332 -289.03,0 -523.33,234.308 -523.33,523.332 0,289.018 234.3,523.318 523.33,523.318 289.02,0 523.32,-234.3 523.32,-523.318"
         transform="translate(0,-2.5000001e-5)"
         id="path291" /></clipPath><clipPath
       clipPathUnits="userSpaceOnUse"
       id="clipPath293"><path
         d="m 3957.62,817.672 c 0,-289.024 -234.3,-523.332 -523.32,-523.332 -289.03,0 -523.33,234.308 -523.33,523.332 0,289.018 234.3,523.318 523.33,523.318 289.02,0 523.32,-234.3 523.32,-523.318"
         transform="translate(0,-2.5000001e-5)"
         id="path293" /></clipPath><clipPath
       clipPathUnits="userSpaceOnUse"
       id="clipPath295"><path
         d="m 3957.62,817.672 c 0,-289.024 -234.3,-523.332 -523.32,-523.332 -289.03,0 -523.33,234.308 -523.33,523.332 0,289.018 234.3,523.318 523.33,523.318 289.02,0 523.32,-234.3 523.32,-523.318"
         transform="translate(0,-2.5000001e-5)"
         id="path295" /></clipPath><clipPath
       clipPathUnits="userSpaceOnUse"
       id="clipPath297"><path
         d="m 3957.62,817.672 c 0,-289.024 -234.3,-523.332 -523.32,-523.332 -289.03,0 -523.33,234.308 -523.33,523.332 0,289.018 234.3,523.318 523.33,523.318 289.02,0 523.32,-234.3 523.32,-523.318"
         transform="translate(0,-2.5000001e-5)"
         id="path297" /></clipPath><clipPath
       clipPathUnits="userSpaceOnUse"
       id="clipPath303"><path
         d="m 3957.62,817.672 c 0,-289.024 -234.3,-523.332 -523.32,-523.332 -289.03,0 -523.33,234.308 -523.33,523.332 0,289.018 234.3,523.318 523.33,523.318 289.02,0 523.32,-234.3 523.32,-523.318"
         transform="translate(0,-2.5000001e-5)"
         id="path303" /></clipPath><clipPath
       clipPathUnits="userSpaceOnUse"
       id="clipPath305"><path
         d="m 3957.62,817.672 c 0,-289.024 -234.3,-523.332 -523.32,-523.332 -289.03,0 -523.33,234.308 -523.33,523.332 0,289.018 234.3,523.318 523.33,523.318 289.02,0 523.32,-234.3 523.32,-523.318"
         transform="translate(0,-2.5000001e-5)"
         id="path305" /></clipPath><clipPath
       clipPathUnits="userSpaceOnUse"
       id="clipPath321"><path
         d="m 3957.62,817.672 c 0,-289.024 -234.3,-523.332 -523.32,-523.332 -289.03,0 -523.33,234.308 -523.33,523.332 0,289.018 234.3,523.318 523.33,523.318 289.02,0 523.32,-234.3 523.32,-523.318"
         transform="translate(0,-2.5000001e-5)"
         id="path321" /></clipPath></defs><g
     id="g1"
     inkscape:groupmode="layer"
     inkscape:label="1"
     transform="matrix(0.26458333,0,0,0.26458334,-268.2613,-101.73389)"><path
       id="path2"
       d="M 625.77221,563.30569 H 1192.7002 V -3.6236292 H 625.77221 Z"
       style="fill:#ffffff;fill-opacity:1;fill-rule:nonzero;stroke:none;stroke-width:0.133333" /><path
       id="path4"
       d="m 1153.4543,454.28172 c 0,38.53653 -31.24,69.7776 -69.776,69.7776 -38.5373,0 -69.7773,-31.24107 -69.7773,-69.7776 0,-38.53573 31.24,-69.77573 69.7773,-69.77573 38.536,0 69.776,31.24 69.776,69.77573"
       style="fill:#999999;fill-opacity:1;fill-rule:nonzero;stroke:none;stroke-width:0.133333" /><path
       id="path278"
       d="m 3334.09,510.332 h 200.422 V 645.371 H 3334.09 Z"
       style="fill:#dedede;fill-opacity:1;fill-rule:nonzero;stroke:none"
       transform="matrix(0.13333333,0,0,-0.13333333,625.77169,563.30465)"
       clip-path="url(#clipPath279)" /><path
       id="path280"
       d="m 3480.28,528.199 c -0.58,0 -1.15,0 -1.73,0.012 -32.52,0.25 -65.67,7.519 -95.85,19.488 -16.56,6.571 -34.54,15.442 -48.61,27.832 v 69.84 h 200.42 v -111.75 c -17.81,-3.152 -36.17,-5.422 -54.23,-5.422"
       style="fill:#dedede;fill-opacity:1;fill-rule:nonzero;stroke:none"
       transform="matrix(0.13333333,0,0,-0.13333333,625.77169,563.30465)"
       clip-path="url(#clipPath281)" /><path
       id="path282"
       d="m 3643.53,895.441 c 0.65,4.891 8.79,12.887 12.35,15.59 7.94,6.008 15.95,-0.172 18.27,-8 2.08,-6.992 2.27,-14.871 2.76,-22.14 1.22,-17.7 -1.4,-35.09 -9.2,-51.071 -5.2,-10.66 -13.36,-19.422 -23,-26.019 0,0 -10.4,-5.301 -12.47,6.879 l 11.29,84.761"
       style="fill:#dedede;fill-opacity:1;fill-rule:nonzero;stroke:none"
       transform="matrix(0.13333333,0,0,-0.13333333,625.77169,563.30465)"
       clip-path="url(#clipPath283)" /><path
       id="path284"
       d="m 3641.88,884.801 c 0.46,3.508 6.28,9.23 8.83,11.16 5.69,4.301 11.41,-0.121 13.06,-5.723 1.5,-5.019 1.63,-10.636 1.99,-15.847 0.87,-12.672 -1.01,-25.11 -6.58,-36.539 -3.73,-7.633 -9.56,-13.903 -16.47,-18.633 0,0 -7.44,-3.789 -8.92,4.922 l 8.09,60.66"
       style="fill:#dedede;fill-opacity:1;fill-rule:nonzero;stroke:none"
       transform="matrix(0.13333333,0,0,-0.13333333,625.77169,563.30465)"
       clip-path="url(#clipPath285)" /><path
       id="path286"
       d="m 3219.96,895.441 c -0.65,4.891 -8.8,12.887 -12.36,15.59 -7.93,6.008 -15.93,-0.172 -18.26,-8 -2.07,-6.992 -2.27,-14.871 -2.76,-22.14 -1.22,-17.7 1.4,-35.09 9.21,-51.071 5.19,-10.66 13.34,-19.422 22.99,-26.019 0,0 10.4,-5.301 12.47,6.879 l -11.29,84.761"
       style="fill:#dedede;fill-opacity:1;fill-rule:nonzero;stroke:none"
       transform="matrix(0.13333333,0,0,-0.13333333,625.77169,563.30465)"
       clip-path="url(#clipPath287)" /><path
       id="path288"
       d="m 3221.62,884.801 c -0.47,3.508 -6.29,9.23 -8.85,11.16 -5.68,4.301 -11.4,-0.121 -13.06,-5.723 -1.49,-5.019 -1.62,-10.636 -1.98,-15.847 -0.86,-12.672 1.01,-25.11 6.58,-36.539 3.73,-7.633 9.56,-13.903 16.47,-18.633 0,0 7.44,-3.789 8.92,4.922 l -8.08,60.66"
       style="fill:#dedede;fill-opacity:1;fill-rule:nonzero;stroke:none"
       transform="matrix(0.13333333,0,0,-0.13333333,625.77169,563.30465)"
       clip-path="url(#clipPath289)" /><path
       id="path290"
       d="m 3649.88,879.48 c 0,-55.871 -9.42,-112.39 -35.17,-160.75 -22.5,-42.289 -56.28,-76.16 -92.52,-103.21 -29.41,-21.942 -60.94,-47.508 -98.16,-44.379 -38.79,3.257 -69,37.097 -97.36,63.519 -39.86,37.149 -71.32,83.301 -90.7,137.582 -11.95,33.457 -17.44,71.219 -17.44,107.238 0,180.67 96.56,294.31 215.67,294.31 119.12,0 215.68,-113.64 215.68,-294.31"
       style="fill:#dedede;fill-opacity:1;fill-rule:nonzero;stroke:none"
       transform="matrix(0.13333333,0,0,-0.13333333,625.77169,563.30465)"
       clip-path="url(#clipPath291)" /><path
       id="path292"
       d="m 3784.27,449.27 -249.76,65.32 h -200.42 l -249.76,-65.32 c 0,0 -115.75,-42.872 -128.61,-178.622 h 478.58 478.57 c -12.86,135.75 -128.6,178.622 -128.6,178.622"
       style="fill:#f9b095;fill-opacity:1;fill-rule:nonzero;stroke:none"
       transform="matrix(0.13333333,0,0,-0.13333333,625.77169,563.30465)"
       clip-path="url(#clipPath293)" /><path
       id="path294"
       d="m 3784.27,449.27 -249.76,65.32 h -200.42 l -249.76,-65.32 c 0,0 -115.75,-42.872 -128.61,-178.622 h 478.58 478.57 c -12.86,135.75 -128.6,178.622 -128.6,178.622"
       style="fill:#ffffff;fill-opacity:1;fill-rule:nonzero;stroke:none"
       transform="matrix(0.13333333,0,0,-0.13333333,625.77169,563.30465)"
       clip-path="url(#clipPath295)" /><path
       id="path296"
       d="M 3784.27,449.27 3599.43,497.609 3434.3,270.648 3270.95,498.082 3084.33,449.27 c 0,0 -115.75,-42.872 -128.61,-178.622 h 478.58 478.57 c -12.86,135.75 -128.6,178.622 -128.6,178.622"
       style="fill:#767676;fill-opacity:1;fill-rule:nonzero;stroke:none"
       transform="matrix(0.13333333,0,0,-0.13333333,625.77169,563.30465)"
       clip-path="url(#clipPath297)" /><path
       id="path302"
       d="m 3432.81,384.359 h -0.04 l 0.58,0.012 19.95,0.328 39.08,51.02 -39.08,-51.02 -20.49,-0.34 m -60.11,49.411 56.16,75.339 -0.01,-0.007 -56.15,-75.332"
       style="fill:#d3d2d2;fill-opacity:1;fill-rule:nonzero;stroke:none"
       transform="matrix(0.13333333,0,0,-0.13333333,625.77169,563.30465)"
       clip-path="url(#clipPath303)" /><path
       id="path304"
       d="m 3413.42,384.039 -0.26,0.32 0.26,-0.32 19.35,0.32 h 0.04 l -19.39,-0.32"
       style="fill:#389d8a;fill-opacity:1;fill-rule:nonzero;stroke:none"
       transform="matrix(0.13333333,0,0,-0.13333333,625.77169,563.30465)"
       clip-path="url(#clipPath305)" /><path
       id="path320"
       d="m 3439.46,681.012 c 0,0 -24.27,12.129 -59.57,-0.91 0,0 53.59,-56.832 114.43,-0.743 0,0 -32.6,15.219 -54.86,1.653"
       style="fill:#dedede;fill-opacity:1;fill-rule:nonzero;stroke:none"
       transform="matrix(0.13333333,0,0,-0.13333333,625.77169,563.30465)"
       clip-path="url(#clipPath321)" /></g></svg>
